%TF.GenerationSoftware,KiCad,Pcbnew,9.99.0-3247-gbad00cdceb*%
%TF.CreationDate,2025-09-27T20:08:06+05:30*%
%TF.ProjectId,led 2,6c656420-322e-46b6-9963-61645f706362,rev?*%
%TF.SameCoordinates,Original*%
%TF.FileFunction,Legend,Bot*%
%TF.FilePolarity,Positive*%
%FSLAX46Y46*%
G04 Gerber Fmt 4.6, Leading zero omitted, Abs format (unit mm)*
G04 Created by KiCad (PCBNEW 9.99.0-3247-gbad00cdceb) date 2025-09-27 20:08:06*
%MOMM*%
%LPD*%
G01*
G04 APERTURE LIST*
%ADD10C,0.100000*%
%ADD11C,0.125000*%
%ADD12C,0.010000*%
G04 APERTURE END LIST*
D10*
X170106782Y-87694358D02*
X169963925Y-87718168D01*
X169963925Y-87718168D02*
X169916306Y-87741977D01*
X169916306Y-87741977D02*
X169868687Y-87789596D01*
X169868687Y-87789596D02*
X169868687Y-87861025D01*
X169868687Y-87861025D02*
X169916306Y-87908644D01*
X169916306Y-87908644D02*
X169963925Y-87932454D01*
X169963925Y-87932454D02*
X170059163Y-87956263D01*
X170059163Y-87956263D02*
X170440115Y-87956263D01*
X170440115Y-87956263D02*
X170440115Y-87456263D01*
X170440115Y-87456263D02*
X170106782Y-87456263D01*
X170106782Y-87456263D02*
X170011544Y-87480073D01*
X170011544Y-87480073D02*
X169963925Y-87503882D01*
X169963925Y-87503882D02*
X169916306Y-87551501D01*
X169916306Y-87551501D02*
X169916306Y-87599120D01*
X169916306Y-87599120D02*
X169963925Y-87646739D01*
X169963925Y-87646739D02*
X170011544Y-87670549D01*
X170011544Y-87670549D02*
X170106782Y-87694358D01*
X170106782Y-87694358D02*
X170440115Y-87694358D01*
X169249639Y-87718168D02*
X169249639Y-87956263D01*
X169582972Y-87456263D02*
X169249639Y-87718168D01*
X169249639Y-87718168D02*
X168916306Y-87456263D01*
D11*
X176471287Y-89244500D02*
X176328430Y-89268309D01*
X176328430Y-89268309D02*
X176090335Y-89268309D01*
X176090335Y-89268309D02*
X175995097Y-89244500D01*
X175995097Y-89244500D02*
X175947478Y-89220690D01*
X175947478Y-89220690D02*
X175899859Y-89173071D01*
X175899859Y-89173071D02*
X175899859Y-89125452D01*
X175899859Y-89125452D02*
X175947478Y-89077833D01*
X175947478Y-89077833D02*
X175995097Y-89054023D01*
X175995097Y-89054023D02*
X176090335Y-89030214D01*
X176090335Y-89030214D02*
X176280811Y-89006404D01*
X176280811Y-89006404D02*
X176376049Y-88982595D01*
X176376049Y-88982595D02*
X176423668Y-88958785D01*
X176423668Y-88958785D02*
X176471287Y-88911166D01*
X176471287Y-88911166D02*
X176471287Y-88863547D01*
X176471287Y-88863547D02*
X176423668Y-88815928D01*
X176423668Y-88815928D02*
X176376049Y-88792119D01*
X176376049Y-88792119D02*
X176280811Y-88768309D01*
X176280811Y-88768309D02*
X176042716Y-88768309D01*
X176042716Y-88768309D02*
X175899859Y-88792119D01*
X175471287Y-89268309D02*
X175471287Y-88768309D01*
X175471287Y-89006404D02*
X174899859Y-89006404D01*
X174899859Y-89268309D02*
X174899859Y-88768309D01*
X174423668Y-89268309D02*
X174423668Y-88768309D01*
X174090335Y-88768309D02*
X173757002Y-89268309D01*
X173757002Y-89268309D02*
X173423669Y-88768309D01*
X172518907Y-89268309D02*
X172852240Y-89030214D01*
X173090335Y-89268309D02*
X173090335Y-88768309D01*
X173090335Y-88768309D02*
X172709383Y-88768309D01*
X172709383Y-88768309D02*
X172614145Y-88792119D01*
X172614145Y-88792119D02*
X172566526Y-88815928D01*
X172566526Y-88815928D02*
X172518907Y-88863547D01*
X172518907Y-88863547D02*
X172518907Y-88934976D01*
X172518907Y-88934976D02*
X172566526Y-88982595D01*
X172566526Y-88982595D02*
X172614145Y-89006404D01*
X172614145Y-89006404D02*
X172709383Y-89030214D01*
X172709383Y-89030214D02*
X173090335Y-89030214D01*
X172137954Y-89125452D02*
X171661764Y-89125452D01*
X172233192Y-89268309D02*
X171899859Y-88768309D01*
X171899859Y-88768309D02*
X171566526Y-89268309D01*
X170947478Y-88768309D02*
X170947478Y-89125452D01*
X170947478Y-89125452D02*
X170995097Y-89196880D01*
X170995097Y-89196880D02*
X171090335Y-89244500D01*
X171090335Y-89244500D02*
X171233192Y-89268309D01*
X171233192Y-89268309D02*
X171328430Y-89268309D01*
D12*
%TO.C,REF\u002A\u002A*%
X173535511Y-87361238D02*
X173540460Y-87367922D01*
X173546304Y-87378493D01*
X173550765Y-87392580D01*
X173554029Y-87412905D01*
X173556282Y-87442192D01*
X173557710Y-87483164D01*
X173558500Y-87538544D01*
X173558837Y-87611055D01*
X173558908Y-87703421D01*
X173558879Y-87769338D01*
X173558647Y-87847655D01*
X173558027Y-87907923D01*
X173556834Y-87952820D01*
X173554887Y-87985029D01*
X173552002Y-88007227D01*
X173547996Y-88022096D01*
X173542687Y-88032316D01*
X173535891Y-88040565D01*
X173531376Y-88045222D01*
X173523146Y-88051709D01*
X173511786Y-88056621D01*
X173494518Y-88060176D01*
X173468563Y-88062594D01*
X173431144Y-88064094D01*
X173379481Y-88064894D01*
X173310797Y-88065214D01*
X173222314Y-88065272D01*
X173202639Y-88065265D01*
X173115614Y-88064999D01*
X173047962Y-88064233D01*
X172997007Y-88062819D01*
X172960075Y-88060607D01*
X172934491Y-88057449D01*
X172917579Y-88053196D01*
X172906665Y-88047698D01*
X172896172Y-88037712D01*
X172882911Y-88006595D01*
X172884094Y-87970707D01*
X172900258Y-87939160D01*
X172902447Y-87936884D01*
X172911135Y-87930616D01*
X172924477Y-87925950D01*
X172945460Y-87922654D01*
X172977071Y-87920495D01*
X173022298Y-87919241D01*
X173084128Y-87918658D01*
X173165547Y-87918516D01*
X173412153Y-87918516D01*
X173412153Y-87760472D01*
X173249714Y-87760472D01*
X173214046Y-87760391D01*
X173158276Y-87759594D01*
X173119138Y-87757589D01*
X173092684Y-87753948D01*
X173074967Y-87748239D01*
X173062037Y-87740034D01*
X173058394Y-87736850D01*
X173039986Y-87705875D01*
X173039352Y-87669539D01*
X173056891Y-87635920D01*
X173056953Y-87635851D01*
X173066624Y-87627225D01*
X173079917Y-87621169D01*
X173100625Y-87617238D01*
X173132536Y-87614983D01*
X173179442Y-87613958D01*
X173245132Y-87613716D01*
X173413279Y-87613716D01*
X173409894Y-87548805D01*
X173406508Y-87483894D01*
X173164431Y-87480841D01*
X173139415Y-87480513D01*
X173057795Y-87479033D01*
X172995476Y-87476649D01*
X172949862Y-87472654D01*
X172918360Y-87466340D01*
X172898375Y-87457001D01*
X172887312Y-87443930D01*
X172882577Y-87426419D01*
X172881575Y-87403762D01*
X172881581Y-87401397D01*
X172882735Y-87381366D01*
X172887532Y-87365573D01*
X172898340Y-87353517D01*
X172917525Y-87344694D01*
X172947453Y-87338602D01*
X172990491Y-87334738D01*
X173049007Y-87332601D01*
X173125365Y-87331687D01*
X173221934Y-87331494D01*
X173512114Y-87331494D01*
X173535511Y-87361238D01*
G36*
X173535511Y-87361238D02*
G01*
X173540460Y-87367922D01*
X173546304Y-87378493D01*
X173550765Y-87392580D01*
X173554029Y-87412905D01*
X173556282Y-87442192D01*
X173557710Y-87483164D01*
X173558500Y-87538544D01*
X173558837Y-87611055D01*
X173558908Y-87703421D01*
X173558879Y-87769338D01*
X173558647Y-87847655D01*
X173558027Y-87907923D01*
X173556834Y-87952820D01*
X173554887Y-87985029D01*
X173552002Y-88007227D01*
X173547996Y-88022096D01*
X173542687Y-88032316D01*
X173535891Y-88040565D01*
X173531376Y-88045222D01*
X173523146Y-88051709D01*
X173511786Y-88056621D01*
X173494518Y-88060176D01*
X173468563Y-88062594D01*
X173431144Y-88064094D01*
X173379481Y-88064894D01*
X173310797Y-88065214D01*
X173222314Y-88065272D01*
X173202639Y-88065265D01*
X173115614Y-88064999D01*
X173047962Y-88064233D01*
X172997007Y-88062819D01*
X172960075Y-88060607D01*
X172934491Y-88057449D01*
X172917579Y-88053196D01*
X172906665Y-88047698D01*
X172896172Y-88037712D01*
X172882911Y-88006595D01*
X172884094Y-87970707D01*
X172900258Y-87939160D01*
X172902447Y-87936884D01*
X172911135Y-87930616D01*
X172924477Y-87925950D01*
X172945460Y-87922654D01*
X172977071Y-87920495D01*
X173022298Y-87919241D01*
X173084128Y-87918658D01*
X173165547Y-87918516D01*
X173412153Y-87918516D01*
X173412153Y-87760472D01*
X173249714Y-87760472D01*
X173214046Y-87760391D01*
X173158276Y-87759594D01*
X173119138Y-87757589D01*
X173092684Y-87753948D01*
X173074967Y-87748239D01*
X173062037Y-87740034D01*
X173058394Y-87736850D01*
X173039986Y-87705875D01*
X173039352Y-87669539D01*
X173056891Y-87635920D01*
X173056953Y-87635851D01*
X173066624Y-87627225D01*
X173079917Y-87621169D01*
X173100625Y-87617238D01*
X173132536Y-87614983D01*
X173179442Y-87613958D01*
X173245132Y-87613716D01*
X173413279Y-87613716D01*
X173409894Y-87548805D01*
X173406508Y-87483894D01*
X173164431Y-87480841D01*
X173139415Y-87480513D01*
X173057795Y-87479033D01*
X172995476Y-87476649D01*
X172949862Y-87472654D01*
X172918360Y-87466340D01*
X172898375Y-87457001D01*
X172887312Y-87443930D01*
X172882577Y-87426419D01*
X172881575Y-87403762D01*
X172881581Y-87401397D01*
X172882735Y-87381366D01*
X172887532Y-87365573D01*
X172898340Y-87353517D01*
X172917525Y-87344694D01*
X172947453Y-87338602D01*
X172990491Y-87334738D01*
X173049007Y-87332601D01*
X173125365Y-87331687D01*
X173221934Y-87331494D01*
X173512114Y-87331494D01*
X173535511Y-87361238D01*
G37*
X176341845Y-87335890D02*
X176375999Y-87359203D01*
X176403708Y-87386912D01*
X176403708Y-87699964D01*
X176403667Y-87783994D01*
X176403409Y-87858216D01*
X176402738Y-87914968D01*
X176401460Y-87956939D01*
X176399381Y-87986816D01*
X176396307Y-88007288D01*
X176392042Y-88021041D01*
X176386392Y-88030764D01*
X176379163Y-88039144D01*
X176347699Y-88060608D01*
X176312534Y-88062374D01*
X176279530Y-88042694D01*
X176274224Y-88036825D01*
X176268774Y-88027741D01*
X176264608Y-88014400D01*
X176261554Y-87994184D01*
X176259440Y-87964476D01*
X176258094Y-87922659D01*
X176257346Y-87866116D01*
X176257022Y-87792229D01*
X176256953Y-87698383D01*
X176256992Y-87622721D01*
X176257247Y-87544812D01*
X176257891Y-87484802D01*
X176259095Y-87440075D01*
X176261032Y-87408012D01*
X176263872Y-87385998D01*
X176267787Y-87371414D01*
X176272950Y-87361645D01*
X176279530Y-87354072D01*
X176308714Y-87335050D01*
X176341845Y-87335890D01*
G36*
X176341845Y-87335890D02*
G01*
X176375999Y-87359203D01*
X176403708Y-87386912D01*
X176403708Y-87699964D01*
X176403667Y-87783994D01*
X176403409Y-87858216D01*
X176402738Y-87914968D01*
X176401460Y-87956939D01*
X176399381Y-87986816D01*
X176396307Y-88007288D01*
X176392042Y-88021041D01*
X176386392Y-88030764D01*
X176379163Y-88039144D01*
X176347699Y-88060608D01*
X176312534Y-88062374D01*
X176279530Y-88042694D01*
X176274224Y-88036825D01*
X176268774Y-88027741D01*
X176264608Y-88014400D01*
X176261554Y-87994184D01*
X176259440Y-87964476D01*
X176258094Y-87922659D01*
X176257346Y-87866116D01*
X176257022Y-87792229D01*
X176256953Y-87698383D01*
X176256992Y-87622721D01*
X176257247Y-87544812D01*
X176257891Y-87484802D01*
X176259095Y-87440075D01*
X176261032Y-87408012D01*
X176263872Y-87385998D01*
X176267787Y-87371414D01*
X176272950Y-87361645D01*
X176279530Y-87354072D01*
X176308714Y-87335050D01*
X176341845Y-87335890D01*
G37*
X179632525Y-87516854D02*
X179632578Y-87597468D01*
X179632330Y-87698383D01*
X179632291Y-87774044D01*
X179632036Y-87851953D01*
X179631392Y-87911963D01*
X179630188Y-87956691D01*
X179628251Y-87988753D01*
X179625411Y-88010767D01*
X179621496Y-88025351D01*
X179616334Y-88035121D01*
X179609753Y-88042694D01*
X179602785Y-88048928D01*
X179589787Y-88056228D01*
X179570639Y-88060981D01*
X179541236Y-88063719D01*
X179497470Y-88064972D01*
X179435236Y-88065272D01*
X179386290Y-88064896D01*
X179279430Y-88060468D01*
X179190202Y-88050380D01*
X179115404Y-88033792D01*
X179051833Y-88009862D01*
X178996287Y-87977748D01*
X178945562Y-87936609D01*
X178939574Y-87930757D01*
X178902707Y-87882248D01*
X178871607Y-87821440D01*
X178850125Y-87757196D01*
X178844844Y-87718453D01*
X178992061Y-87718453D01*
X179010343Y-87769388D01*
X179040013Y-87815305D01*
X179086710Y-87857714D01*
X179148100Y-87887517D01*
X179227246Y-87906653D01*
X179228736Y-87906891D01*
X179277707Y-87912683D01*
X179336401Y-87916823D01*
X179392442Y-87918431D01*
X179485575Y-87918516D01*
X179485575Y-87478249D01*
X179409375Y-87478235D01*
X179406347Y-87478244D01*
X179355227Y-87480209D01*
X179295124Y-87484934D01*
X179238416Y-87491462D01*
X179188458Y-87500758D01*
X179113706Y-87527027D01*
X179056197Y-87566326D01*
X179014696Y-87619360D01*
X178993479Y-87670627D01*
X178992061Y-87718453D01*
X178844844Y-87718453D01*
X178842108Y-87698383D01*
X178843387Y-87677166D01*
X178855699Y-87619750D01*
X178878228Y-87559840D01*
X178907458Y-87505790D01*
X178939875Y-87465959D01*
X178959416Y-87448937D01*
X179014128Y-87409749D01*
X179074431Y-87379620D01*
X179143627Y-87357659D01*
X179225019Y-87342977D01*
X179321908Y-87334686D01*
X179437597Y-87331894D01*
X179477079Y-87331493D01*
X179522790Y-87331080D01*
X179558591Y-87332884D01*
X179585682Y-87339166D01*
X179605264Y-87352186D01*
X179618538Y-87374205D01*
X179626706Y-87407482D01*
X179630968Y-87454278D01*
X179631565Y-87478249D01*
X179632525Y-87516854D01*
G36*
X179632525Y-87516854D02*
G01*
X179632578Y-87597468D01*
X179632330Y-87698383D01*
X179632291Y-87774044D01*
X179632036Y-87851953D01*
X179631392Y-87911963D01*
X179630188Y-87956691D01*
X179628251Y-87988753D01*
X179625411Y-88010767D01*
X179621496Y-88025351D01*
X179616334Y-88035121D01*
X179609753Y-88042694D01*
X179602785Y-88048928D01*
X179589787Y-88056228D01*
X179570639Y-88060981D01*
X179541236Y-88063719D01*
X179497470Y-88064972D01*
X179435236Y-88065272D01*
X179386290Y-88064896D01*
X179279430Y-88060468D01*
X179190202Y-88050380D01*
X179115404Y-88033792D01*
X179051833Y-88009862D01*
X178996287Y-87977748D01*
X178945562Y-87936609D01*
X178939574Y-87930757D01*
X178902707Y-87882248D01*
X178871607Y-87821440D01*
X178850125Y-87757196D01*
X178844844Y-87718453D01*
X178992061Y-87718453D01*
X179010343Y-87769388D01*
X179040013Y-87815305D01*
X179086710Y-87857714D01*
X179148100Y-87887517D01*
X179227246Y-87906653D01*
X179228736Y-87906891D01*
X179277707Y-87912683D01*
X179336401Y-87916823D01*
X179392442Y-87918431D01*
X179485575Y-87918516D01*
X179485575Y-87478249D01*
X179409375Y-87478235D01*
X179406347Y-87478244D01*
X179355227Y-87480209D01*
X179295124Y-87484934D01*
X179238416Y-87491462D01*
X179188458Y-87500758D01*
X179113706Y-87527027D01*
X179056197Y-87566326D01*
X179014696Y-87619360D01*
X178993479Y-87670627D01*
X178992061Y-87718453D01*
X178844844Y-87718453D01*
X178842108Y-87698383D01*
X178843387Y-87677166D01*
X178855699Y-87619750D01*
X178878228Y-87559840D01*
X178907458Y-87505790D01*
X178939875Y-87465959D01*
X178959416Y-87448937D01*
X179014128Y-87409749D01*
X179074431Y-87379620D01*
X179143627Y-87357659D01*
X179225019Y-87342977D01*
X179321908Y-87334686D01*
X179437597Y-87331894D01*
X179477079Y-87331493D01*
X179522790Y-87331080D01*
X179558591Y-87332884D01*
X179585682Y-87339166D01*
X179605264Y-87352186D01*
X179618538Y-87374205D01*
X179626706Y-87407482D01*
X179630968Y-87454278D01*
X179631565Y-87478249D01*
X179632525Y-87516854D01*
G37*
X174687601Y-87330319D02*
X174699009Y-87336456D01*
X174709558Y-87347118D01*
X174720844Y-87361238D01*
X174725297Y-87367199D01*
X174731296Y-87377695D01*
X174735875Y-87391520D01*
X174739227Y-87411425D01*
X174741541Y-87440159D01*
X174743009Y-87480472D01*
X174743821Y-87535114D01*
X174744168Y-87606834D01*
X174744242Y-87698383D01*
X174744219Y-87756913D01*
X174744000Y-87836000D01*
X174743391Y-87896943D01*
X174742200Y-87942489D01*
X174740237Y-87975390D01*
X174737311Y-87998395D01*
X174733231Y-88014253D01*
X174727805Y-88025713D01*
X174720844Y-88035527D01*
X174690416Y-88059920D01*
X174655473Y-88062799D01*
X174618492Y-88043709D01*
X174614308Y-88040234D01*
X174606132Y-88031706D01*
X174600072Y-88020155D01*
X174595689Y-88002323D01*
X174592547Y-87974951D01*
X174590210Y-87934781D01*
X174588239Y-87878555D01*
X174586197Y-87803016D01*
X174580553Y-87583885D01*
X174315264Y-87824526D01*
X174241430Y-87891302D01*
X174176250Y-87949418D01*
X174124056Y-87994376D01*
X174082981Y-88027298D01*
X174051163Y-88049306D01*
X174026734Y-88061521D01*
X174007832Y-88065066D01*
X173992591Y-88061063D01*
X173979147Y-88050634D01*
X173965635Y-88034901D01*
X173959390Y-88026418D01*
X173953758Y-88015840D01*
X173949547Y-88001682D01*
X173946595Y-87981230D01*
X173944740Y-87951769D01*
X173943821Y-87910588D01*
X173943676Y-87854971D01*
X173944143Y-87782206D01*
X173945060Y-87689578D01*
X173948375Y-87374626D01*
X173975026Y-87353060D01*
X174001091Y-87336868D01*
X174033949Y-87334097D01*
X174068480Y-87353050D01*
X174072792Y-87356635D01*
X174080924Y-87365164D01*
X174086953Y-87376756D01*
X174091314Y-87394662D01*
X174094442Y-87422133D01*
X174096771Y-87462421D01*
X174098737Y-87518778D01*
X174100775Y-87594456D01*
X174106419Y-87814305D01*
X174287042Y-87650511D01*
X174373780Y-87571878D01*
X174449551Y-87503485D01*
X174511688Y-87448135D01*
X174561786Y-87404765D01*
X174601443Y-87372308D01*
X174632256Y-87349700D01*
X174655822Y-87335875D01*
X174673738Y-87329770D01*
X174687601Y-87330319D01*
G36*
X174687601Y-87330319D02*
G01*
X174699009Y-87336456D01*
X174709558Y-87347118D01*
X174720844Y-87361238D01*
X174725297Y-87367199D01*
X174731296Y-87377695D01*
X174735875Y-87391520D01*
X174739227Y-87411425D01*
X174741541Y-87440159D01*
X174743009Y-87480472D01*
X174743821Y-87535114D01*
X174744168Y-87606834D01*
X174744242Y-87698383D01*
X174744219Y-87756913D01*
X174744000Y-87836000D01*
X174743391Y-87896943D01*
X174742200Y-87942489D01*
X174740237Y-87975390D01*
X174737311Y-87998395D01*
X174733231Y-88014253D01*
X174727805Y-88025713D01*
X174720844Y-88035527D01*
X174690416Y-88059920D01*
X174655473Y-88062799D01*
X174618492Y-88043709D01*
X174614308Y-88040234D01*
X174606132Y-88031706D01*
X174600072Y-88020155D01*
X174595689Y-88002323D01*
X174592547Y-87974951D01*
X174590210Y-87934781D01*
X174588239Y-87878555D01*
X174586197Y-87803016D01*
X174580553Y-87583885D01*
X174315264Y-87824526D01*
X174241430Y-87891302D01*
X174176250Y-87949418D01*
X174124056Y-87994376D01*
X174082981Y-88027298D01*
X174051163Y-88049306D01*
X174026734Y-88061521D01*
X174007832Y-88065066D01*
X173992591Y-88061063D01*
X173979147Y-88050634D01*
X173965635Y-88034901D01*
X173959390Y-88026418D01*
X173953758Y-88015840D01*
X173949547Y-88001682D01*
X173946595Y-87981230D01*
X173944740Y-87951769D01*
X173943821Y-87910588D01*
X173943676Y-87854971D01*
X173944143Y-87782206D01*
X173945060Y-87689578D01*
X173948375Y-87374626D01*
X173975026Y-87353060D01*
X174001091Y-87336868D01*
X174033949Y-87334097D01*
X174068480Y-87353050D01*
X174072792Y-87356635D01*
X174080924Y-87365164D01*
X174086953Y-87376756D01*
X174091314Y-87394662D01*
X174094442Y-87422133D01*
X174096771Y-87462421D01*
X174098737Y-87518778D01*
X174100775Y-87594456D01*
X174106419Y-87814305D01*
X174287042Y-87650511D01*
X174373780Y-87571878D01*
X174449551Y-87503485D01*
X174511688Y-87448135D01*
X174561786Y-87404765D01*
X174601443Y-87372308D01*
X174632256Y-87349700D01*
X174655822Y-87335875D01*
X174673738Y-87329770D01*
X174687601Y-87330319D01*
G37*
X175484858Y-87336606D02*
X175590865Y-87352921D01*
X175684677Y-87380972D01*
X175763473Y-87419879D01*
X175824427Y-87468761D01*
X175850497Y-87501622D01*
X175880005Y-87550821D01*
X175905276Y-87604679D01*
X175922926Y-87655846D01*
X175929566Y-87696971D01*
X175928006Y-87716686D01*
X175915065Y-87768019D01*
X175891902Y-87824545D01*
X175862010Y-87878462D01*
X175828881Y-87921966D01*
X175818685Y-87932314D01*
X175751600Y-87984089D01*
X175671474Y-88023981D01*
X175585264Y-88048383D01*
X175530300Y-88056495D01*
X175436847Y-88063100D01*
X175347066Y-88061013D01*
X175264577Y-88050767D01*
X175192994Y-88032897D01*
X175135936Y-88007935D01*
X175097019Y-87976415D01*
X175095644Y-87974439D01*
X175088556Y-87949213D01*
X175084317Y-87901962D01*
X175082908Y-87832498D01*
X175083768Y-87770265D01*
X175088488Y-87722883D01*
X175100178Y-87690780D01*
X175121947Y-87671227D01*
X175156906Y-87661497D01*
X175208164Y-87658860D01*
X175278831Y-87660588D01*
X175327451Y-87663600D01*
X175377647Y-87671793D01*
X175410141Y-87685846D01*
X175427600Y-87707081D01*
X175432691Y-87736821D01*
X175432585Y-87741363D01*
X175423883Y-87776157D01*
X175399873Y-87799574D01*
X175358608Y-87812774D01*
X175298139Y-87816916D01*
X175229664Y-87816916D01*
X175229664Y-87855268D01*
X175229714Y-87864403D01*
X175231935Y-87881654D01*
X175241202Y-87891948D01*
X175262583Y-87898886D01*
X175301144Y-87906068D01*
X175306618Y-87907002D01*
X175403568Y-87916905D01*
X175493560Y-87913986D01*
X175574468Y-87899256D01*
X175644167Y-87873726D01*
X175700532Y-87838405D01*
X175741437Y-87794306D01*
X175764759Y-87742439D01*
X175768371Y-87683815D01*
X175762853Y-87654921D01*
X175736169Y-87599031D01*
X175689981Y-87553372D01*
X175624999Y-87518535D01*
X175541937Y-87495117D01*
X175517263Y-87490668D01*
X175427934Y-87480169D01*
X175348127Y-87481398D01*
X175270034Y-87494333D01*
X175234891Y-87501123D01*
X175189453Y-87502140D01*
X175158138Y-87489609D01*
X175137985Y-87462822D01*
X175131601Y-87434575D01*
X175141087Y-87403351D01*
X175150416Y-87389926D01*
X175184651Y-87366394D01*
X175237273Y-87348522D01*
X175305789Y-87337026D01*
X175387708Y-87332619D01*
X175484858Y-87336606D01*
G36*
X175484858Y-87336606D02*
G01*
X175590865Y-87352921D01*
X175684677Y-87380972D01*
X175763473Y-87419879D01*
X175824427Y-87468761D01*
X175850497Y-87501622D01*
X175880005Y-87550821D01*
X175905276Y-87604679D01*
X175922926Y-87655846D01*
X175929566Y-87696971D01*
X175928006Y-87716686D01*
X175915065Y-87768019D01*
X175891902Y-87824545D01*
X175862010Y-87878462D01*
X175828881Y-87921966D01*
X175818685Y-87932314D01*
X175751600Y-87984089D01*
X175671474Y-88023981D01*
X175585264Y-88048383D01*
X175530300Y-88056495D01*
X175436847Y-88063100D01*
X175347066Y-88061013D01*
X175264577Y-88050767D01*
X175192994Y-88032897D01*
X175135936Y-88007935D01*
X175097019Y-87976415D01*
X175095644Y-87974439D01*
X175088556Y-87949213D01*
X175084317Y-87901962D01*
X175082908Y-87832498D01*
X175083768Y-87770265D01*
X175088488Y-87722883D01*
X175100178Y-87690780D01*
X175121947Y-87671227D01*
X175156906Y-87661497D01*
X175208164Y-87658860D01*
X175278831Y-87660588D01*
X175327451Y-87663600D01*
X175377647Y-87671793D01*
X175410141Y-87685846D01*
X175427600Y-87707081D01*
X175432691Y-87736821D01*
X175432585Y-87741363D01*
X175423883Y-87776157D01*
X175399873Y-87799574D01*
X175358608Y-87812774D01*
X175298139Y-87816916D01*
X175229664Y-87816916D01*
X175229664Y-87855268D01*
X175229714Y-87864403D01*
X175231935Y-87881654D01*
X175241202Y-87891948D01*
X175262583Y-87898886D01*
X175301144Y-87906068D01*
X175306618Y-87907002D01*
X175403568Y-87916905D01*
X175493560Y-87913986D01*
X175574468Y-87899256D01*
X175644167Y-87873726D01*
X175700532Y-87838405D01*
X175741437Y-87794306D01*
X175764759Y-87742439D01*
X175768371Y-87683815D01*
X175762853Y-87654921D01*
X175736169Y-87599031D01*
X175689981Y-87553372D01*
X175624999Y-87518535D01*
X175541937Y-87495117D01*
X175517263Y-87490668D01*
X175427934Y-87480169D01*
X175348127Y-87481398D01*
X175270034Y-87494333D01*
X175234891Y-87501123D01*
X175189453Y-87502140D01*
X175158138Y-87489609D01*
X175137985Y-87462822D01*
X175131601Y-87434575D01*
X175141087Y-87403351D01*
X175150416Y-87389926D01*
X175184651Y-87366394D01*
X175237273Y-87348522D01*
X175305789Y-87337026D01*
X175387708Y-87332619D01*
X175484858Y-87336606D01*
G37*
X178212442Y-87331510D02*
X178289539Y-87331702D01*
X178348485Y-87332287D01*
X178392072Y-87333478D01*
X178423091Y-87335491D01*
X178444333Y-87338539D01*
X178458590Y-87342836D01*
X178468653Y-87348599D01*
X178477314Y-87356039D01*
X178479099Y-87357720D01*
X178486343Y-87365259D01*
X178491985Y-87374277D01*
X178496225Y-87387411D01*
X178499264Y-87407299D01*
X178501302Y-87436578D01*
X178502538Y-87477885D01*
X178503173Y-87533858D01*
X178503408Y-87607134D01*
X178503442Y-87700350D01*
X178503405Y-87773140D01*
X178503156Y-87851316D01*
X178502520Y-87911530D01*
X178501323Y-87956409D01*
X178499392Y-87988579D01*
X178496554Y-88010666D01*
X178492635Y-88025297D01*
X178487463Y-88035097D01*
X178480864Y-88042694D01*
X178477530Y-88045871D01*
X178469008Y-88051981D01*
X178457006Y-88056656D01*
X178438795Y-88060086D01*
X178411648Y-88062463D01*
X178372837Y-88063979D01*
X178319632Y-88064825D01*
X178249306Y-88065192D01*
X178159130Y-88065272D01*
X178117022Y-88065260D01*
X178035875Y-88065078D01*
X177973383Y-88064525D01*
X177926817Y-88063409D01*
X177893449Y-88061540D01*
X177870552Y-88058725D01*
X177855396Y-88054773D01*
X177845254Y-88049493D01*
X177837397Y-88042694D01*
X177822671Y-88021094D01*
X177814819Y-87991894D01*
X177820318Y-87967987D01*
X177837397Y-87941094D01*
X177842376Y-87936486D01*
X177852151Y-87930199D01*
X177866267Y-87925573D01*
X177887762Y-87922357D01*
X177919676Y-87920297D01*
X177965050Y-87919139D01*
X178026921Y-87918629D01*
X178108330Y-87918516D01*
X178356686Y-87918516D01*
X178356686Y-87760472D01*
X178195509Y-87760472D01*
X178159691Y-87760326D01*
X178094067Y-87758603D01*
X178046826Y-87754168D01*
X178015091Y-87746064D01*
X177995985Y-87733333D01*
X177986631Y-87715019D01*
X177984153Y-87690165D01*
X177984950Y-87669909D01*
X177990202Y-87648083D01*
X178002996Y-87632731D01*
X178026336Y-87622736D01*
X178063225Y-87616980D01*
X178116667Y-87614346D01*
X178189666Y-87613716D01*
X178357813Y-87613716D01*
X178354427Y-87548805D01*
X178351042Y-87483894D01*
X178103325Y-87480845D01*
X178040734Y-87479966D01*
X177972273Y-87478522D01*
X177921369Y-87476591D01*
X177885116Y-87473941D01*
X177860609Y-87470337D01*
X177844943Y-87465548D01*
X177835214Y-87459340D01*
X177829199Y-87452937D01*
X177816190Y-87421255D01*
X177819751Y-87385569D01*
X177839526Y-87354511D01*
X177842777Y-87351588D01*
X177851757Y-87345237D01*
X177863861Y-87340384D01*
X177881867Y-87336830D01*
X177908555Y-87334373D01*
X177946705Y-87332812D01*
X177999094Y-87331945D01*
X178068502Y-87331573D01*
X178157709Y-87331494D01*
X178212442Y-87331510D01*
G36*
X178212442Y-87331510D02*
G01*
X178289539Y-87331702D01*
X178348485Y-87332287D01*
X178392072Y-87333478D01*
X178423091Y-87335491D01*
X178444333Y-87338539D01*
X178458590Y-87342836D01*
X178468653Y-87348599D01*
X178477314Y-87356039D01*
X178479099Y-87357720D01*
X178486343Y-87365259D01*
X178491985Y-87374277D01*
X178496225Y-87387411D01*
X178499264Y-87407299D01*
X178501302Y-87436578D01*
X178502538Y-87477885D01*
X178503173Y-87533858D01*
X178503408Y-87607134D01*
X178503442Y-87700350D01*
X178503405Y-87773140D01*
X178503156Y-87851316D01*
X178502520Y-87911530D01*
X178501323Y-87956409D01*
X178499392Y-87988579D01*
X178496554Y-88010666D01*
X178492635Y-88025297D01*
X178487463Y-88035097D01*
X178480864Y-88042694D01*
X178477530Y-88045871D01*
X178469008Y-88051981D01*
X178457006Y-88056656D01*
X178438795Y-88060086D01*
X178411648Y-88062463D01*
X178372837Y-88063979D01*
X178319632Y-88064825D01*
X178249306Y-88065192D01*
X178159130Y-88065272D01*
X178117022Y-88065260D01*
X178035875Y-88065078D01*
X177973383Y-88064525D01*
X177926817Y-88063409D01*
X177893449Y-88061540D01*
X177870552Y-88058725D01*
X177855396Y-88054773D01*
X177845254Y-88049493D01*
X177837397Y-88042694D01*
X177822671Y-88021094D01*
X177814819Y-87991894D01*
X177820318Y-87967987D01*
X177837397Y-87941094D01*
X177842376Y-87936486D01*
X177852151Y-87930199D01*
X177866267Y-87925573D01*
X177887762Y-87922357D01*
X177919676Y-87920297D01*
X177965050Y-87919139D01*
X178026921Y-87918629D01*
X178108330Y-87918516D01*
X178356686Y-87918516D01*
X178356686Y-87760472D01*
X178195509Y-87760472D01*
X178159691Y-87760326D01*
X178094067Y-87758603D01*
X178046826Y-87754168D01*
X178015091Y-87746064D01*
X177995985Y-87733333D01*
X177986631Y-87715019D01*
X177984153Y-87690165D01*
X177984950Y-87669909D01*
X177990202Y-87648083D01*
X178002996Y-87632731D01*
X178026336Y-87622736D01*
X178063225Y-87616980D01*
X178116667Y-87614346D01*
X178189666Y-87613716D01*
X178357813Y-87613716D01*
X178354427Y-87548805D01*
X178351042Y-87483894D01*
X178103325Y-87480845D01*
X178040734Y-87479966D01*
X177972273Y-87478522D01*
X177921369Y-87476591D01*
X177885116Y-87473941D01*
X177860609Y-87470337D01*
X177844943Y-87465548D01*
X177835214Y-87459340D01*
X177829199Y-87452937D01*
X177816190Y-87421255D01*
X177819751Y-87385569D01*
X177839526Y-87354511D01*
X177842777Y-87351588D01*
X177851757Y-87345237D01*
X177863861Y-87340384D01*
X177881867Y-87336830D01*
X177908555Y-87334373D01*
X177946705Y-87332812D01*
X177999094Y-87331945D01*
X178068502Y-87331573D01*
X178157709Y-87331494D01*
X178212442Y-87331510D01*
G37*
X177196561Y-87332363D02*
X177262808Y-87337793D01*
X177318108Y-87347391D01*
X177368991Y-87362252D01*
X177440303Y-87395385D01*
X177491460Y-87438067D01*
X177522283Y-87490132D01*
X177532597Y-87551410D01*
X177531660Y-87582659D01*
X177525868Y-87607456D01*
X177511061Y-87629126D01*
X177483088Y-87656476D01*
X177475110Y-87663805D01*
X177451400Y-87684708D01*
X177429006Y-87701678D01*
X177404973Y-87715632D01*
X177376345Y-87727483D01*
X177340168Y-87738147D01*
X177293488Y-87748538D01*
X177233349Y-87759573D01*
X177156798Y-87772165D01*
X177060879Y-87787231D01*
X177042516Y-87790265D01*
X176980186Y-87803885D01*
X176934968Y-87819619D01*
X176908684Y-87836690D01*
X176903155Y-87854324D01*
X176905776Y-87858595D01*
X176923708Y-87873660D01*
X176951834Y-87890294D01*
X176964634Y-87896284D01*
X176985932Y-87903477D01*
X177012318Y-87908254D01*
X177048162Y-87911073D01*
X177097836Y-87912391D01*
X177165708Y-87912664D01*
X177183493Y-87912591D01*
X177251114Y-87911480D01*
X177316053Y-87909255D01*
X177371678Y-87906189D01*
X177411359Y-87902554D01*
X177446870Y-87898486D01*
X177476123Y-87897703D01*
X177495023Y-87902303D01*
X177510137Y-87912978D01*
X177513793Y-87916571D01*
X177530135Y-87948345D01*
X177528815Y-87983999D01*
X177509858Y-88014617D01*
X177489488Y-88026223D01*
X177453504Y-88038918D01*
X177411080Y-88048968D01*
X177407630Y-88049567D01*
X177364960Y-88054783D01*
X177307574Y-88059157D01*
X177242557Y-88062245D01*
X177176997Y-88063604D01*
X177160765Y-88063645D01*
X177062452Y-88061168D01*
X176982400Y-88053162D01*
X176917221Y-88038630D01*
X176863525Y-88016576D01*
X176817924Y-87986003D01*
X176777031Y-87945913D01*
X176756910Y-87919686D01*
X176745284Y-87890139D01*
X176742375Y-87850422D01*
X176742516Y-87838453D01*
X176746389Y-87805772D01*
X176758773Y-87779246D01*
X176783938Y-87748398D01*
X176805150Y-87726258D01*
X176831546Y-87703712D01*
X176861263Y-87685344D01*
X176897493Y-87670088D01*
X176943425Y-87656876D01*
X177002252Y-87644641D01*
X177077164Y-87632316D01*
X177171353Y-87618833D01*
X177216665Y-87611823D01*
X177284619Y-87597264D01*
X177333755Y-87580764D01*
X177363322Y-87562866D01*
X177372572Y-87544112D01*
X177360756Y-87525042D01*
X177327124Y-87506198D01*
X177324078Y-87504984D01*
X177277719Y-87492906D01*
X177215069Y-87484706D01*
X177141635Y-87480546D01*
X177062925Y-87480588D01*
X176984447Y-87484996D01*
X176911708Y-87493932D01*
X176907781Y-87494581D01*
X176858965Y-87502288D01*
X176826713Y-87505900D01*
X176805716Y-87505303D01*
X176790662Y-87500381D01*
X176776242Y-87491023D01*
X176775072Y-87490152D01*
X176750555Y-87459778D01*
X176745762Y-87424277D01*
X176761568Y-87389696D01*
X176766114Y-87385240D01*
X176795728Y-87370100D01*
X176842710Y-87356977D01*
X176903014Y-87346177D01*
X176972596Y-87338008D01*
X177047411Y-87332778D01*
X177123414Y-87330794D01*
X177196561Y-87332363D01*
G36*
X177196561Y-87332363D02*
G01*
X177262808Y-87337793D01*
X177318108Y-87347391D01*
X177368991Y-87362252D01*
X177440303Y-87395385D01*
X177491460Y-87438067D01*
X177522283Y-87490132D01*
X177532597Y-87551410D01*
X177531660Y-87582659D01*
X177525868Y-87607456D01*
X177511061Y-87629126D01*
X177483088Y-87656476D01*
X177475110Y-87663805D01*
X177451400Y-87684708D01*
X177429006Y-87701678D01*
X177404973Y-87715632D01*
X177376345Y-87727483D01*
X177340168Y-87738147D01*
X177293488Y-87748538D01*
X177233349Y-87759573D01*
X177156798Y-87772165D01*
X177060879Y-87787231D01*
X177042516Y-87790265D01*
X176980186Y-87803885D01*
X176934968Y-87819619D01*
X176908684Y-87836690D01*
X176903155Y-87854324D01*
X176905776Y-87858595D01*
X176923708Y-87873660D01*
X176951834Y-87890294D01*
X176964634Y-87896284D01*
X176985932Y-87903477D01*
X177012318Y-87908254D01*
X177048162Y-87911073D01*
X177097836Y-87912391D01*
X177165708Y-87912664D01*
X177183493Y-87912591D01*
X177251114Y-87911480D01*
X177316053Y-87909255D01*
X177371678Y-87906189D01*
X177411359Y-87902554D01*
X177446870Y-87898486D01*
X177476123Y-87897703D01*
X177495023Y-87902303D01*
X177510137Y-87912978D01*
X177513793Y-87916571D01*
X177530135Y-87948345D01*
X177528815Y-87983999D01*
X177509858Y-88014617D01*
X177489488Y-88026223D01*
X177453504Y-88038918D01*
X177411080Y-88048968D01*
X177407630Y-88049567D01*
X177364960Y-88054783D01*
X177307574Y-88059157D01*
X177242557Y-88062245D01*
X177176997Y-88063604D01*
X177160765Y-88063645D01*
X177062452Y-88061168D01*
X176982400Y-88053162D01*
X176917221Y-88038630D01*
X176863525Y-88016576D01*
X176817924Y-87986003D01*
X176777031Y-87945913D01*
X176756910Y-87919686D01*
X176745284Y-87890139D01*
X176742375Y-87850422D01*
X176742516Y-87838453D01*
X176746389Y-87805772D01*
X176758773Y-87779246D01*
X176783938Y-87748398D01*
X176805150Y-87726258D01*
X176831546Y-87703712D01*
X176861263Y-87685344D01*
X176897493Y-87670088D01*
X176943425Y-87656876D01*
X177002252Y-87644641D01*
X177077164Y-87632316D01*
X177171353Y-87618833D01*
X177216665Y-87611823D01*
X177284619Y-87597264D01*
X177333755Y-87580764D01*
X177363322Y-87562866D01*
X177372572Y-87544112D01*
X177360756Y-87525042D01*
X177327124Y-87506198D01*
X177324078Y-87504984D01*
X177277719Y-87492906D01*
X177215069Y-87484706D01*
X177141635Y-87480546D01*
X177062925Y-87480588D01*
X176984447Y-87484996D01*
X176911708Y-87493932D01*
X176907781Y-87494581D01*
X176858965Y-87502288D01*
X176826713Y-87505900D01*
X176805716Y-87505303D01*
X176790662Y-87500381D01*
X176776242Y-87491023D01*
X176775072Y-87490152D01*
X176750555Y-87459778D01*
X176745762Y-87424277D01*
X176761568Y-87389696D01*
X176766114Y-87385240D01*
X176795728Y-87370100D01*
X176842710Y-87356977D01*
X176903014Y-87346177D01*
X176972596Y-87338008D01*
X177047411Y-87332778D01*
X177123414Y-87330794D01*
X177196561Y-87332363D01*
G37*
X176698562Y-81868850D02*
X176781313Y-81896053D01*
X176856406Y-81941484D01*
X176928298Y-82007302D01*
X176966846Y-82051567D01*
X177006256Y-82109961D01*
X177031446Y-82170586D01*
X177044861Y-82239865D01*
X177048948Y-82324222D01*
X177048669Y-82370307D01*
X177046460Y-82411450D01*
X177040894Y-82443582D01*
X177030586Y-82474122D01*
X177014148Y-82510489D01*
X177000200Y-82537728D01*
X176941665Y-82623429D01*
X176869619Y-82692617D01*
X176785947Y-82743741D01*
X176692531Y-82775250D01*
X176659434Y-82782225D01*
X176618960Y-82789094D01*
X176585999Y-82790919D01*
X176551698Y-82787947D01*
X176507200Y-82780426D01*
X176455934Y-82768002D01*
X176365434Y-82730112D01*
X176286345Y-82675836D01*
X176220528Y-82607770D01*
X176169840Y-82528511D01*
X176136140Y-82440654D01*
X176121286Y-82346795D01*
X176127136Y-82249530D01*
X176153399Y-82153220D01*
X176198418Y-82064494D01*
X176259373Y-81989419D01*
X176334184Y-81929641D01*
X176420768Y-81886809D01*
X176517043Y-81862571D01*
X176620928Y-81858576D01*
X176698562Y-81868850D01*
G36*
X176698562Y-81868850D02*
G01*
X176781313Y-81896053D01*
X176856406Y-81941484D01*
X176928298Y-82007302D01*
X176966846Y-82051567D01*
X177006256Y-82109961D01*
X177031446Y-82170586D01*
X177044861Y-82239865D01*
X177048948Y-82324222D01*
X177048669Y-82370307D01*
X177046460Y-82411450D01*
X177040894Y-82443582D01*
X177030586Y-82474122D01*
X177014148Y-82510489D01*
X177000200Y-82537728D01*
X176941665Y-82623429D01*
X176869619Y-82692617D01*
X176785947Y-82743741D01*
X176692531Y-82775250D01*
X176659434Y-82782225D01*
X176618960Y-82789094D01*
X176585999Y-82790919D01*
X176551698Y-82787947D01*
X176507200Y-82780426D01*
X176455934Y-82768002D01*
X176365434Y-82730112D01*
X176286345Y-82675836D01*
X176220528Y-82607770D01*
X176169840Y-82528511D01*
X176136140Y-82440654D01*
X176121286Y-82346795D01*
X176127136Y-82249530D01*
X176153399Y-82153220D01*
X176198418Y-82064494D01*
X176259373Y-81989419D01*
X176334184Y-81929641D01*
X176420768Y-81886809D01*
X176517043Y-81862571D01*
X176620928Y-81858576D01*
X176698562Y-81868850D01*
G37*
X172540841Y-87942823D02*
X172538871Y-87975602D01*
X172535943Y-87998522D01*
X172531866Y-88014324D01*
X172526451Y-88025746D01*
X172519511Y-88035527D01*
X172496114Y-88065272D01*
X172330422Y-88064678D01*
X172295626Y-88064380D01*
X172197143Y-88060949D01*
X172116181Y-88053266D01*
X172049087Y-88040709D01*
X171992204Y-88022654D01*
X171941877Y-87998479D01*
X171938518Y-87996562D01*
X171880706Y-87959844D01*
X171838352Y-87922878D01*
X171805536Y-87879393D01*
X171776336Y-87823116D01*
X171772054Y-87813500D01*
X171749477Y-87750314D01*
X171743742Y-87704760D01*
X171892987Y-87704760D01*
X171898600Y-87729488D01*
X171904326Y-87745366D01*
X171937256Y-87805274D01*
X171984594Y-87851027D01*
X172048360Y-87884163D01*
X172130569Y-87906217D01*
X172133363Y-87906719D01*
X172179648Y-87912682D01*
X172236044Y-87916910D01*
X172290982Y-87918516D01*
X172384864Y-87918516D01*
X172384864Y-87478249D01*
X172297375Y-87478697D01*
X172230455Y-87481173D01*
X172138057Y-87492425D01*
X172058742Y-87511964D01*
X171996768Y-87538938D01*
X171965828Y-87559667D01*
X171937708Y-87589433D01*
X171914368Y-87631861D01*
X171907241Y-87647827D01*
X171895417Y-87680329D01*
X171892987Y-87704760D01*
X171743742Y-87704760D01*
X171742505Y-87694936D01*
X171751107Y-87639910D01*
X171775249Y-87577778D01*
X171776045Y-87576085D01*
X171816496Y-87506663D01*
X171867181Y-87450065D01*
X171929906Y-87405497D01*
X172006482Y-87372168D01*
X172098717Y-87349288D01*
X172208420Y-87336063D01*
X172337399Y-87331702D01*
X172340971Y-87331697D01*
X172400991Y-87331837D01*
X172442922Y-87332873D01*
X172471036Y-87335467D01*
X172489605Y-87340280D01*
X172502902Y-87347971D01*
X172515199Y-87359203D01*
X172542908Y-87386912D01*
X172542908Y-87696347D01*
X172542883Y-87757953D01*
X172542658Y-87836738D01*
X172542040Y-87897448D01*
X172541483Y-87918516D01*
X172540841Y-87942823D01*
G36*
X172540841Y-87942823D02*
G01*
X172538871Y-87975602D01*
X172535943Y-87998522D01*
X172531866Y-88014324D01*
X172526451Y-88025746D01*
X172519511Y-88035527D01*
X172496114Y-88065272D01*
X172330422Y-88064678D01*
X172295626Y-88064380D01*
X172197143Y-88060949D01*
X172116181Y-88053266D01*
X172049087Y-88040709D01*
X171992204Y-88022654D01*
X171941877Y-87998479D01*
X171938518Y-87996562D01*
X171880706Y-87959844D01*
X171838352Y-87922878D01*
X171805536Y-87879393D01*
X171776336Y-87823116D01*
X171772054Y-87813500D01*
X171749477Y-87750314D01*
X171743742Y-87704760D01*
X171892987Y-87704760D01*
X171898600Y-87729488D01*
X171904326Y-87745366D01*
X171937256Y-87805274D01*
X171984594Y-87851027D01*
X172048360Y-87884163D01*
X172130569Y-87906217D01*
X172133363Y-87906719D01*
X172179648Y-87912682D01*
X172236044Y-87916910D01*
X172290982Y-87918516D01*
X172384864Y-87918516D01*
X172384864Y-87478249D01*
X172297375Y-87478697D01*
X172230455Y-87481173D01*
X172138057Y-87492425D01*
X172058742Y-87511964D01*
X171996768Y-87538938D01*
X171965828Y-87559667D01*
X171937708Y-87589433D01*
X171914368Y-87631861D01*
X171907241Y-87647827D01*
X171895417Y-87680329D01*
X171892987Y-87704760D01*
X171743742Y-87704760D01*
X171742505Y-87694936D01*
X171751107Y-87639910D01*
X171775249Y-87577778D01*
X171776045Y-87576085D01*
X171816496Y-87506663D01*
X171867181Y-87450065D01*
X171929906Y-87405497D01*
X172006482Y-87372168D01*
X172098717Y-87349288D01*
X172208420Y-87336063D01*
X172337399Y-87331702D01*
X172340971Y-87331697D01*
X172400991Y-87331837D01*
X172442922Y-87332873D01*
X172471036Y-87335467D01*
X172489605Y-87340280D01*
X172502902Y-87347971D01*
X172515199Y-87359203D01*
X172542908Y-87386912D01*
X172542908Y-87696347D01*
X172542883Y-87757953D01*
X172542658Y-87836738D01*
X172542040Y-87897448D01*
X172541483Y-87918516D01*
X172540841Y-87942823D01*
G37*
X174232711Y-82798033D02*
X174328268Y-82815523D01*
X174492558Y-82860564D01*
X174646589Y-82923656D01*
X174792509Y-83005915D01*
X174932466Y-83108457D01*
X175068608Y-83232399D01*
X175112473Y-83277661D01*
X175224758Y-83409865D01*
X175317972Y-83547832D01*
X175394719Y-83695750D01*
X175457603Y-83857803D01*
X175461420Y-83869391D01*
X175511507Y-84055392D01*
X175544899Y-84251521D01*
X175561584Y-84453568D01*
X175561551Y-84657325D01*
X175544791Y-84858581D01*
X175511292Y-85053128D01*
X175461044Y-85236756D01*
X175417190Y-85354053D01*
X175339348Y-85516951D01*
X175245828Y-85670866D01*
X175138822Y-85812671D01*
X175020519Y-85939239D01*
X174893111Y-86047441D01*
X174815606Y-86100120D01*
X174688725Y-86169750D01*
X174551243Y-86228468D01*
X174409716Y-86273587D01*
X174270702Y-86302422D01*
X174256597Y-86304106D01*
X174213153Y-86307434D01*
X174155723Y-86310275D01*
X174090122Y-86312373D01*
X174022167Y-86313468D01*
X173895378Y-86311140D01*
X173747673Y-86298136D01*
X173609779Y-86273133D01*
X173476014Y-86235318D01*
X173452562Y-86226889D01*
X173404612Y-86207408D01*
X173348140Y-86182473D01*
X173286379Y-86153722D01*
X173222563Y-86122790D01*
X173159926Y-86091315D01*
X173101703Y-86060934D01*
X173051127Y-86033283D01*
X173011433Y-86009999D01*
X172985854Y-85992718D01*
X172977625Y-85983079D01*
X172979076Y-85979984D01*
X172990250Y-85960079D01*
X173011134Y-85924420D01*
X173040265Y-85875459D01*
X173076181Y-85815646D01*
X173117420Y-85747433D01*
X173162517Y-85673271D01*
X173343785Y-85376008D01*
X173390315Y-85420539D01*
X173481723Y-85498865D01*
X173595334Y-85573439D01*
X173713122Y-85627474D01*
X173833559Y-85660290D01*
X173955117Y-85671211D01*
X173996585Y-85669868D01*
X174114080Y-85651612D01*
X174224089Y-85612617D01*
X174325430Y-85553670D01*
X174416921Y-85475557D01*
X174497380Y-85379064D01*
X174565627Y-85264978D01*
X174581908Y-85230724D01*
X174627982Y-85107240D01*
X174663106Y-84968918D01*
X174687197Y-84819561D01*
X174700173Y-84662973D01*
X174701949Y-84502956D01*
X174692443Y-84343314D01*
X174671572Y-84187850D01*
X174639252Y-84040366D01*
X174595399Y-83904667D01*
X174557982Y-83818076D01*
X174493185Y-83704688D01*
X174417772Y-83611070D01*
X174331418Y-83536959D01*
X174233795Y-83482094D01*
X174124577Y-83446212D01*
X174003439Y-83429051D01*
X173934038Y-83427880D01*
X173811168Y-83442141D01*
X173695664Y-83477241D01*
X173588953Y-83532682D01*
X173492464Y-83607964D01*
X173476720Y-83622440D01*
X173446150Y-83648962D01*
X173423809Y-83666138D01*
X173413691Y-83670787D01*
X173411706Y-83668597D01*
X173397241Y-83649721D01*
X173373400Y-83616397D01*
X173342029Y-83571380D01*
X173304974Y-83517425D01*
X173264083Y-83457285D01*
X173221202Y-83393718D01*
X173178178Y-83329476D01*
X173136857Y-83267315D01*
X173099086Y-83209991D01*
X173066712Y-83160257D01*
X173041582Y-83120868D01*
X173025542Y-83094580D01*
X173020439Y-83084147D01*
X173025050Y-83079941D01*
X173044267Y-83074933D01*
X173053838Y-83072386D01*
X173081809Y-83061249D01*
X173123448Y-83042802D01*
X173174995Y-83018725D01*
X173232690Y-82990699D01*
X173243957Y-82985154D01*
X173421687Y-82905889D01*
X173591490Y-82846385D01*
X173755430Y-82806245D01*
X173915571Y-82785071D01*
X174073977Y-82782466D01*
X174232711Y-82798033D01*
G36*
X174232711Y-82798033D02*
G01*
X174328268Y-82815523D01*
X174492558Y-82860564D01*
X174646589Y-82923656D01*
X174792509Y-83005915D01*
X174932466Y-83108457D01*
X175068608Y-83232399D01*
X175112473Y-83277661D01*
X175224758Y-83409865D01*
X175317972Y-83547832D01*
X175394719Y-83695750D01*
X175457603Y-83857803D01*
X175461420Y-83869391D01*
X175511507Y-84055392D01*
X175544899Y-84251521D01*
X175561584Y-84453568D01*
X175561551Y-84657325D01*
X175544791Y-84858581D01*
X175511292Y-85053128D01*
X175461044Y-85236756D01*
X175417190Y-85354053D01*
X175339348Y-85516951D01*
X175245828Y-85670866D01*
X175138822Y-85812671D01*
X175020519Y-85939239D01*
X174893111Y-86047441D01*
X174815606Y-86100120D01*
X174688725Y-86169750D01*
X174551243Y-86228468D01*
X174409716Y-86273587D01*
X174270702Y-86302422D01*
X174256597Y-86304106D01*
X174213153Y-86307434D01*
X174155723Y-86310275D01*
X174090122Y-86312373D01*
X174022167Y-86313468D01*
X173895378Y-86311140D01*
X173747673Y-86298136D01*
X173609779Y-86273133D01*
X173476014Y-86235318D01*
X173452562Y-86226889D01*
X173404612Y-86207408D01*
X173348140Y-86182473D01*
X173286379Y-86153722D01*
X173222563Y-86122790D01*
X173159926Y-86091315D01*
X173101703Y-86060934D01*
X173051127Y-86033283D01*
X173011433Y-86009999D01*
X172985854Y-85992718D01*
X172977625Y-85983079D01*
X172979076Y-85979984D01*
X172990250Y-85960079D01*
X173011134Y-85924420D01*
X173040265Y-85875459D01*
X173076181Y-85815646D01*
X173117420Y-85747433D01*
X173162517Y-85673271D01*
X173343785Y-85376008D01*
X173390315Y-85420539D01*
X173481723Y-85498865D01*
X173595334Y-85573439D01*
X173713122Y-85627474D01*
X173833559Y-85660290D01*
X173955117Y-85671211D01*
X173996585Y-85669868D01*
X174114080Y-85651612D01*
X174224089Y-85612617D01*
X174325430Y-85553670D01*
X174416921Y-85475557D01*
X174497380Y-85379064D01*
X174565627Y-85264978D01*
X174581908Y-85230724D01*
X174627982Y-85107240D01*
X174663106Y-84968918D01*
X174687197Y-84819561D01*
X174700173Y-84662973D01*
X174701949Y-84502956D01*
X174692443Y-84343314D01*
X174671572Y-84187850D01*
X174639252Y-84040366D01*
X174595399Y-83904667D01*
X174557982Y-83818076D01*
X174493185Y-83704688D01*
X174417772Y-83611070D01*
X174331418Y-83536959D01*
X174233795Y-83482094D01*
X174124577Y-83446212D01*
X174003439Y-83429051D01*
X173934038Y-83427880D01*
X173811168Y-83442141D01*
X173695664Y-83477241D01*
X173588953Y-83532682D01*
X173492464Y-83607964D01*
X173476720Y-83622440D01*
X173446150Y-83648962D01*
X173423809Y-83666138D01*
X173413691Y-83670787D01*
X173411706Y-83668597D01*
X173397241Y-83649721D01*
X173373400Y-83616397D01*
X173342029Y-83571380D01*
X173304974Y-83517425D01*
X173264083Y-83457285D01*
X173221202Y-83393718D01*
X173178178Y-83329476D01*
X173136857Y-83267315D01*
X173099086Y-83209991D01*
X173066712Y-83160257D01*
X173041582Y-83120868D01*
X173025542Y-83094580D01*
X173020439Y-83084147D01*
X173025050Y-83079941D01*
X173044267Y-83074933D01*
X173053838Y-83072386D01*
X173081809Y-83061249D01*
X173123448Y-83042802D01*
X173174995Y-83018725D01*
X173232690Y-82990699D01*
X173243957Y-82985154D01*
X173421687Y-82905889D01*
X173591490Y-82846385D01*
X173755430Y-82806245D01*
X173915571Y-82785071D01*
X174073977Y-82782466D01*
X174232711Y-82798033D01*
G37*
X170429994Y-85078711D02*
X170429268Y-85156158D01*
X170420689Y-85307594D01*
X170401833Y-85444283D01*
X170371837Y-85570276D01*
X170329836Y-85689625D01*
X170274969Y-85806381D01*
X170208167Y-85917179D01*
X170117363Y-86030739D01*
X170013708Y-86126211D01*
X169897887Y-86203073D01*
X169770586Y-86260797D01*
X169632489Y-86298858D01*
X169594793Y-86304666D01*
X169515752Y-86310396D01*
X169427629Y-86310583D01*
X169338236Y-86305539D01*
X169255384Y-86295578D01*
X169186887Y-86281012D01*
X169156035Y-86271364D01*
X169078730Y-86241123D01*
X169001679Y-86203617D01*
X168932200Y-86162614D01*
X168877615Y-86121879D01*
X168854916Y-86102505D01*
X168832201Y-86084662D01*
X168820779Y-86077778D01*
X168819537Y-86079424D01*
X168816728Y-86097205D01*
X168814776Y-86130370D01*
X168814045Y-86173733D01*
X168814045Y-86269689D01*
X167955896Y-86269689D01*
X167990161Y-86208974D01*
X167995355Y-86199868D01*
X168003715Y-86185249D01*
X168011288Y-86171173D01*
X168018112Y-86156540D01*
X168024227Y-86140249D01*
X168029673Y-86121198D01*
X168034487Y-86098286D01*
X168038708Y-86070413D01*
X168042377Y-86036478D01*
X168045531Y-85995379D01*
X168048211Y-85946015D01*
X168050454Y-85887286D01*
X168052299Y-85818090D01*
X168053787Y-85737326D01*
X168054955Y-85643894D01*
X168055844Y-85536692D01*
X168056491Y-85414620D01*
X168056936Y-85276576D01*
X168057218Y-85121459D01*
X168057375Y-84948168D01*
X168057448Y-84755603D01*
X168057474Y-84542662D01*
X168057485Y-84406530D01*
X168859200Y-84406530D01*
X168859200Y-85556721D01*
X168929756Y-85603089D01*
X168970417Y-85626791D01*
X169024546Y-85652639D01*
X169073689Y-85670829D01*
X169137165Y-85686551D01*
X169233331Y-85697541D01*
X169317900Y-85689365D01*
X169391219Y-85661805D01*
X169453637Y-85614642D01*
X169505502Y-85547658D01*
X169547160Y-85460633D01*
X169578962Y-85353350D01*
X169581545Y-85341009D01*
X169590000Y-85279772D01*
X169595663Y-85202692D01*
X169598576Y-85115002D01*
X169598783Y-85021934D01*
X169596330Y-84928720D01*
X169591261Y-84840594D01*
X169583619Y-84762788D01*
X169573448Y-84700533D01*
X169572167Y-84694666D01*
X169543126Y-84584121D01*
X169508610Y-84493575D01*
X169467456Y-84420953D01*
X169418499Y-84364181D01*
X169360574Y-84321184D01*
X169328620Y-84305615D01*
X169255784Y-84286722D01*
X169174443Y-84283465D01*
X169089319Y-84295389D01*
X169005133Y-84322040D01*
X168926608Y-84362962D01*
X168859200Y-84406530D01*
X168057485Y-84406530D01*
X168057493Y-84308245D01*
X168057689Y-82623378D01*
X168963017Y-82623378D01*
X168938585Y-82660067D01*
X168932318Y-82669647D01*
X168906208Y-82715981D01*
X168888469Y-82763102D01*
X168876908Y-82818251D01*
X168869331Y-82888667D01*
X168868839Y-82895650D01*
X168867062Y-82933641D01*
X168865444Y-82987576D01*
X168863999Y-83054703D01*
X168862740Y-83132271D01*
X168861680Y-83217528D01*
X168860829Y-83307724D01*
X168860203Y-83400107D01*
X168859812Y-83491925D01*
X168859670Y-83580427D01*
X168859790Y-83662862D01*
X168860183Y-83736479D01*
X168860862Y-83798526D01*
X168861841Y-83846251D01*
X168863132Y-83876904D01*
X168864747Y-83887733D01*
X168872957Y-83883333D01*
X168894647Y-83868362D01*
X168924014Y-83846448D01*
X168972879Y-83812236D01*
X169061125Y-83765714D01*
X169159916Y-83732046D01*
X169272510Y-83710231D01*
X169402164Y-83699265D01*
X169494670Y-83698219D01*
X169616011Y-83708014D01*
X169726099Y-83732174D01*
X169829389Y-83771785D01*
X169930338Y-83827932D01*
X169975503Y-83858883D01*
X170080911Y-83950115D01*
X170172538Y-84059106D01*
X170250332Y-84185726D01*
X170314241Y-84329845D01*
X170364214Y-84491332D01*
X170400198Y-84670059D01*
X170422143Y-84865895D01*
X170427900Y-85021934D01*
X170429994Y-85078711D01*
G36*
X170429994Y-85078711D02*
G01*
X170429268Y-85156158D01*
X170420689Y-85307594D01*
X170401833Y-85444283D01*
X170371837Y-85570276D01*
X170329836Y-85689625D01*
X170274969Y-85806381D01*
X170208167Y-85917179D01*
X170117363Y-86030739D01*
X170013708Y-86126211D01*
X169897887Y-86203073D01*
X169770586Y-86260797D01*
X169632489Y-86298858D01*
X169594793Y-86304666D01*
X169515752Y-86310396D01*
X169427629Y-86310583D01*
X169338236Y-86305539D01*
X169255384Y-86295578D01*
X169186887Y-86281012D01*
X169156035Y-86271364D01*
X169078730Y-86241123D01*
X169001679Y-86203617D01*
X168932200Y-86162614D01*
X168877615Y-86121879D01*
X168854916Y-86102505D01*
X168832201Y-86084662D01*
X168820779Y-86077778D01*
X168819537Y-86079424D01*
X168816728Y-86097205D01*
X168814776Y-86130370D01*
X168814045Y-86173733D01*
X168814045Y-86269689D01*
X167955896Y-86269689D01*
X167990161Y-86208974D01*
X167995355Y-86199868D01*
X168003715Y-86185249D01*
X168011288Y-86171173D01*
X168018112Y-86156540D01*
X168024227Y-86140249D01*
X168029673Y-86121198D01*
X168034487Y-86098286D01*
X168038708Y-86070413D01*
X168042377Y-86036478D01*
X168045531Y-85995379D01*
X168048211Y-85946015D01*
X168050454Y-85887286D01*
X168052299Y-85818090D01*
X168053787Y-85737326D01*
X168054955Y-85643894D01*
X168055844Y-85536692D01*
X168056491Y-85414620D01*
X168056936Y-85276576D01*
X168057218Y-85121459D01*
X168057375Y-84948168D01*
X168057448Y-84755603D01*
X168057474Y-84542662D01*
X168057485Y-84406530D01*
X168859200Y-84406530D01*
X168859200Y-85556721D01*
X168929756Y-85603089D01*
X168970417Y-85626791D01*
X169024546Y-85652639D01*
X169073689Y-85670829D01*
X169137165Y-85686551D01*
X169233331Y-85697541D01*
X169317900Y-85689365D01*
X169391219Y-85661805D01*
X169453637Y-85614642D01*
X169505502Y-85547658D01*
X169547160Y-85460633D01*
X169578962Y-85353350D01*
X169581545Y-85341009D01*
X169590000Y-85279772D01*
X169595663Y-85202692D01*
X169598576Y-85115002D01*
X169598783Y-85021934D01*
X169596330Y-84928720D01*
X169591261Y-84840594D01*
X169583619Y-84762788D01*
X169573448Y-84700533D01*
X169572167Y-84694666D01*
X169543126Y-84584121D01*
X169508610Y-84493575D01*
X169467456Y-84420953D01*
X169418499Y-84364181D01*
X169360574Y-84321184D01*
X169328620Y-84305615D01*
X169255784Y-84286722D01*
X169174443Y-84283465D01*
X169089319Y-84295389D01*
X169005133Y-84322040D01*
X168926608Y-84362962D01*
X168859200Y-84406530D01*
X168057485Y-84406530D01*
X168057493Y-84308245D01*
X168057689Y-82623378D01*
X168963017Y-82623378D01*
X168938585Y-82660067D01*
X168932318Y-82669647D01*
X168906208Y-82715981D01*
X168888469Y-82763102D01*
X168876908Y-82818251D01*
X168869331Y-82888667D01*
X168868839Y-82895650D01*
X168867062Y-82933641D01*
X168865444Y-82987576D01*
X168863999Y-83054703D01*
X168862740Y-83132271D01*
X168861680Y-83217528D01*
X168860829Y-83307724D01*
X168860203Y-83400107D01*
X168859812Y-83491925D01*
X168859670Y-83580427D01*
X168859790Y-83662862D01*
X168860183Y-83736479D01*
X168860862Y-83798526D01*
X168861841Y-83846251D01*
X168863132Y-83876904D01*
X168864747Y-83887733D01*
X168872957Y-83883333D01*
X168894647Y-83868362D01*
X168924014Y-83846448D01*
X168972879Y-83812236D01*
X169061125Y-83765714D01*
X169159916Y-83732046D01*
X169272510Y-83710231D01*
X169402164Y-83699265D01*
X169494670Y-83698219D01*
X169616011Y-83708014D01*
X169726099Y-83732174D01*
X169829389Y-83771785D01*
X169930338Y-83827932D01*
X169975503Y-83858883D01*
X170080911Y-83950115D01*
X170172538Y-84059106D01*
X170250332Y-84185726D01*
X170314241Y-84329845D01*
X170364214Y-84491332D01*
X170400198Y-84670059D01*
X170422143Y-84865895D01*
X170427900Y-85021934D01*
X170429994Y-85078711D01*
G37*
X172971755Y-85479467D02*
X172971261Y-85513363D01*
X172967632Y-85588202D01*
X172960022Y-85650401D01*
X172947688Y-85706984D01*
X172903313Y-85833076D01*
X172840400Y-85947679D01*
X172760238Y-86048568D01*
X172663740Y-86134924D01*
X172551822Y-86205932D01*
X172425397Y-86260776D01*
X172285378Y-86298638D01*
X172249149Y-86304351D01*
X172170155Y-86310313D01*
X172081841Y-86310646D01*
X171992075Y-86305659D01*
X171908722Y-86295666D01*
X171839651Y-86280978D01*
X171753187Y-86250749D01*
X171643286Y-86196057D01*
X171545956Y-86128543D01*
X171483867Y-86077556D01*
X171480605Y-86173622D01*
X171477343Y-86269689D01*
X171054450Y-86269689D01*
X171043543Y-86269686D01*
X170949056Y-86269380D01*
X170862331Y-86268616D01*
X170785837Y-86267451D01*
X170722043Y-86265942D01*
X170673418Y-86264147D01*
X170642433Y-86262121D01*
X170631556Y-86259922D01*
X170631578Y-86259463D01*
X170638614Y-86243910D01*
X170654434Y-86221071D01*
X170658734Y-86215638D01*
X170669777Y-86201606D01*
X170679311Y-86188186D01*
X170687461Y-86173722D01*
X170694352Y-86156556D01*
X170700111Y-86135034D01*
X170704862Y-86107498D01*
X170708731Y-86072292D01*
X170711844Y-86027760D01*
X170714325Y-85972246D01*
X170716300Y-85904093D01*
X170717894Y-85821645D01*
X170719234Y-85723246D01*
X170720444Y-85607239D01*
X170721649Y-85471968D01*
X170722595Y-85360586D01*
X171523378Y-85360586D01*
X171523378Y-85556462D01*
X171568048Y-85612973D01*
X171580785Y-85628212D01*
X171627604Y-85670844D01*
X171688255Y-85706672D01*
X171698897Y-85711850D01*
X171737676Y-85728745D01*
X171772692Y-85738909D01*
X171812722Y-85744325D01*
X171866541Y-85746978D01*
X171884648Y-85747383D01*
X171960011Y-85744540D01*
X172020743Y-85732620D01*
X172072452Y-85710037D01*
X172120746Y-85675211D01*
X172125803Y-85670798D01*
X172174272Y-85615160D01*
X172202459Y-85551333D01*
X172211752Y-85476282D01*
X172204520Y-85404693D01*
X172179796Y-85341645D01*
X172135249Y-85283758D01*
X172080319Y-85236808D01*
X172007894Y-85196961D01*
X171921340Y-85169263D01*
X171818670Y-85153096D01*
X171697894Y-85147842D01*
X171689007Y-85147857D01*
X171633660Y-85148655D01*
X171586736Y-85150488D01*
X171552953Y-85153111D01*
X171537028Y-85156274D01*
X171532943Y-85162741D01*
X171528572Y-85184875D01*
X171525604Y-85223988D01*
X171523914Y-85281939D01*
X171523378Y-85360586D01*
X170722595Y-85360586D01*
X170722975Y-85315778D01*
X170724228Y-85173012D01*
X170725651Y-85027942D01*
X170727176Y-84902027D01*
X170728933Y-84793436D01*
X170731051Y-84700334D01*
X170733660Y-84620891D01*
X170736890Y-84553273D01*
X170740869Y-84495649D01*
X170745728Y-84446185D01*
X170751597Y-84403050D01*
X170758604Y-84364410D01*
X170766880Y-84328434D01*
X170776554Y-84293289D01*
X170787756Y-84257142D01*
X170800616Y-84218161D01*
X170816090Y-84175091D01*
X170858994Y-84082871D01*
X170912735Y-84003099D01*
X170981576Y-83928965D01*
X171059185Y-83865405D01*
X171163761Y-83803725D01*
X171283244Y-83756202D01*
X171418508Y-83722567D01*
X171570426Y-83702552D01*
X171739872Y-83695889D01*
X171797890Y-83696287D01*
X171863398Y-83698335D01*
X171924693Y-83702704D01*
X171986097Y-83710035D01*
X172051932Y-83720969D01*
X172126520Y-83736147D01*
X172214184Y-83756209D01*
X172319245Y-83781797D01*
X172347806Y-83788820D01*
X172423054Y-83806776D01*
X172493388Y-83822820D01*
X172554567Y-83836028D01*
X172602354Y-83845474D01*
X172632511Y-83850231D01*
X172660783Y-83853910D01*
X172687060Y-83859187D01*
X172697059Y-83863942D01*
X172693952Y-83872781D01*
X172683194Y-83900072D01*
X172665864Y-83942906D01*
X172643126Y-83998425D01*
X172616147Y-84063772D01*
X172586090Y-84136089D01*
X172579493Y-84151879D01*
X172540907Y-84242484D01*
X172509768Y-84312217D01*
X172485917Y-84361405D01*
X172469198Y-84390374D01*
X172459454Y-84399452D01*
X172451766Y-84397405D01*
X172425415Y-84387760D01*
X172386982Y-84372190D01*
X172341822Y-84352815D01*
X172247293Y-84314814D01*
X172110480Y-84273780D01*
X171969289Y-84248612D01*
X171931314Y-84244611D01*
X171828059Y-84242447D01*
X171740952Y-84255622D01*
X171669129Y-84284756D01*
X171611731Y-84330466D01*
X171567896Y-84393372D01*
X171536762Y-84474092D01*
X171517470Y-84573245D01*
X171510050Y-84632224D01*
X171671936Y-84625445D01*
X171798495Y-84623813D01*
X171949951Y-84630194D01*
X172098396Y-84644777D01*
X172234578Y-84666882D01*
X172299245Y-84681821D01*
X172431490Y-84724741D01*
X172553762Y-84781340D01*
X172663685Y-84850017D01*
X172758883Y-84929170D01*
X172836980Y-85017196D01*
X172895599Y-85112493D01*
X172919595Y-85164864D01*
X172945232Y-85235590D01*
X172961478Y-85306812D01*
X172969822Y-85385712D01*
X172971690Y-85476282D01*
X172971755Y-85479467D01*
G36*
X172971755Y-85479467D02*
G01*
X172971261Y-85513363D01*
X172967632Y-85588202D01*
X172960022Y-85650401D01*
X172947688Y-85706984D01*
X172903313Y-85833076D01*
X172840400Y-85947679D01*
X172760238Y-86048568D01*
X172663740Y-86134924D01*
X172551822Y-86205932D01*
X172425397Y-86260776D01*
X172285378Y-86298638D01*
X172249149Y-86304351D01*
X172170155Y-86310313D01*
X172081841Y-86310646D01*
X171992075Y-86305659D01*
X171908722Y-86295666D01*
X171839651Y-86280978D01*
X171753187Y-86250749D01*
X171643286Y-86196057D01*
X171545956Y-86128543D01*
X171483867Y-86077556D01*
X171480605Y-86173622D01*
X171477343Y-86269689D01*
X171054450Y-86269689D01*
X171043543Y-86269686D01*
X170949056Y-86269380D01*
X170862331Y-86268616D01*
X170785837Y-86267451D01*
X170722043Y-86265942D01*
X170673418Y-86264147D01*
X170642433Y-86262121D01*
X170631556Y-86259922D01*
X170631578Y-86259463D01*
X170638614Y-86243910D01*
X170654434Y-86221071D01*
X170658734Y-86215638D01*
X170669777Y-86201606D01*
X170679311Y-86188186D01*
X170687461Y-86173722D01*
X170694352Y-86156556D01*
X170700111Y-86135034D01*
X170704862Y-86107498D01*
X170708731Y-86072292D01*
X170711844Y-86027760D01*
X170714325Y-85972246D01*
X170716300Y-85904093D01*
X170717894Y-85821645D01*
X170719234Y-85723246D01*
X170720444Y-85607239D01*
X170721649Y-85471968D01*
X170722595Y-85360586D01*
X171523378Y-85360586D01*
X171523378Y-85556462D01*
X171568048Y-85612973D01*
X171580785Y-85628212D01*
X171627604Y-85670844D01*
X171688255Y-85706672D01*
X171698897Y-85711850D01*
X171737676Y-85728745D01*
X171772692Y-85738909D01*
X171812722Y-85744325D01*
X171866541Y-85746978D01*
X171884648Y-85747383D01*
X171960011Y-85744540D01*
X172020743Y-85732620D01*
X172072452Y-85710037D01*
X172120746Y-85675211D01*
X172125803Y-85670798D01*
X172174272Y-85615160D01*
X172202459Y-85551333D01*
X172211752Y-85476282D01*
X172204520Y-85404693D01*
X172179796Y-85341645D01*
X172135249Y-85283758D01*
X172080319Y-85236808D01*
X172007894Y-85196961D01*
X171921340Y-85169263D01*
X171818670Y-85153096D01*
X171697894Y-85147842D01*
X171689007Y-85147857D01*
X171633660Y-85148655D01*
X171586736Y-85150488D01*
X171552953Y-85153111D01*
X171537028Y-85156274D01*
X171532943Y-85162741D01*
X171528572Y-85184875D01*
X171525604Y-85223988D01*
X171523914Y-85281939D01*
X171523378Y-85360586D01*
X170722595Y-85360586D01*
X170722975Y-85315778D01*
X170724228Y-85173012D01*
X170725651Y-85027942D01*
X170727176Y-84902027D01*
X170728933Y-84793436D01*
X170731051Y-84700334D01*
X170733660Y-84620891D01*
X170736890Y-84553273D01*
X170740869Y-84495649D01*
X170745728Y-84446185D01*
X170751597Y-84403050D01*
X170758604Y-84364410D01*
X170766880Y-84328434D01*
X170776554Y-84293289D01*
X170787756Y-84257142D01*
X170800616Y-84218161D01*
X170816090Y-84175091D01*
X170858994Y-84082871D01*
X170912735Y-84003099D01*
X170981576Y-83928965D01*
X171059185Y-83865405D01*
X171163761Y-83803725D01*
X171283244Y-83756202D01*
X171418508Y-83722567D01*
X171570426Y-83702552D01*
X171739872Y-83695889D01*
X171797890Y-83696287D01*
X171863398Y-83698335D01*
X171924693Y-83702704D01*
X171986097Y-83710035D01*
X172051932Y-83720969D01*
X172126520Y-83736147D01*
X172214184Y-83756209D01*
X172319245Y-83781797D01*
X172347806Y-83788820D01*
X172423054Y-83806776D01*
X172493388Y-83822820D01*
X172554567Y-83836028D01*
X172602354Y-83845474D01*
X172632511Y-83850231D01*
X172660783Y-83853910D01*
X172687060Y-83859187D01*
X172697059Y-83863942D01*
X172693952Y-83872781D01*
X172683194Y-83900072D01*
X172665864Y-83942906D01*
X172643126Y-83998425D01*
X172616147Y-84063772D01*
X172586090Y-84136089D01*
X172579493Y-84151879D01*
X172540907Y-84242484D01*
X172509768Y-84312217D01*
X172485917Y-84361405D01*
X172469198Y-84390374D01*
X172459454Y-84399452D01*
X172451766Y-84397405D01*
X172425415Y-84387760D01*
X172386982Y-84372190D01*
X172341822Y-84352815D01*
X172247293Y-84314814D01*
X172110480Y-84273780D01*
X171969289Y-84248612D01*
X171931314Y-84244611D01*
X171828059Y-84242447D01*
X171740952Y-84255622D01*
X171669129Y-84284756D01*
X171611731Y-84330466D01*
X171567896Y-84393372D01*
X171536762Y-84474092D01*
X171517470Y-84573245D01*
X171510050Y-84632224D01*
X171671936Y-84625445D01*
X171798495Y-84623813D01*
X171949951Y-84630194D01*
X172098396Y-84644777D01*
X172234578Y-84666882D01*
X172299245Y-84681821D01*
X172431490Y-84724741D01*
X172553762Y-84781340D01*
X172663685Y-84850017D01*
X172758883Y-84929170D01*
X172836980Y-85017196D01*
X172895599Y-85112493D01*
X172919595Y-85164864D01*
X172945232Y-85235590D01*
X172961478Y-85306812D01*
X172969822Y-85385712D01*
X172971690Y-85476282D01*
X172971755Y-85479467D01*
G37*
X180519614Y-82947792D02*
X180520059Y-83079011D01*
X180520362Y-83226216D01*
X180520548Y-83390349D01*
X180520642Y-83572352D01*
X180520671Y-83773165D01*
X180520661Y-83993732D01*
X180520636Y-84234992D01*
X180520622Y-84497889D01*
X180520622Y-84540040D01*
X180520646Y-84800668D01*
X180520685Y-85039796D01*
X180520708Y-85258360D01*
X180520687Y-85457295D01*
X180520593Y-85637535D01*
X180520395Y-85800015D01*
X180520063Y-85945670D01*
X180519569Y-86075434D01*
X180518883Y-86190243D01*
X180517976Y-86291030D01*
X180516817Y-86378730D01*
X180515378Y-86454279D01*
X180513629Y-86518611D01*
X180511540Y-86572661D01*
X180509083Y-86617363D01*
X180506227Y-86653652D01*
X180502943Y-86682463D01*
X180499202Y-86704731D01*
X180494974Y-86721390D01*
X180490229Y-86733375D01*
X180484939Y-86741621D01*
X180479073Y-86747062D01*
X180472602Y-86750634D01*
X180465497Y-86753270D01*
X180457728Y-86755906D01*
X180449266Y-86759477D01*
X180444908Y-86761145D01*
X180436395Y-86763111D01*
X180423694Y-86764911D01*
X180405885Y-86766555D01*
X180382049Y-86768047D01*
X180351266Y-86769397D01*
X180312617Y-86770611D01*
X180265182Y-86771697D01*
X180208043Y-86772661D01*
X180140279Y-86773511D01*
X180060971Y-86774253D01*
X179969199Y-86774897D01*
X179864044Y-86775447D01*
X179744587Y-86775913D01*
X179609908Y-86776300D01*
X179459088Y-86776616D01*
X179291206Y-86776869D01*
X179105345Y-86777066D01*
X178900583Y-86777213D01*
X178676002Y-86777318D01*
X178430682Y-86777389D01*
X178163704Y-86777432D01*
X178125321Y-86777437D01*
X177859922Y-86777480D01*
X177616050Y-86777525D01*
X177392783Y-86777548D01*
X177189196Y-86777524D01*
X177004367Y-86777430D01*
X176837373Y-86777243D01*
X176687290Y-86776939D01*
X176553196Y-86776494D01*
X176434166Y-86775885D01*
X176329279Y-86775089D01*
X176237610Y-86774080D01*
X176158237Y-86772837D01*
X176090237Y-86771335D01*
X176032686Y-86769551D01*
X175984662Y-86767461D01*
X175945240Y-86765042D01*
X175913499Y-86762270D01*
X175888514Y-86759121D01*
X175869364Y-86755572D01*
X175855123Y-86751598D01*
X175844871Y-86747178D01*
X175837682Y-86742286D01*
X175832635Y-86736900D01*
X175828805Y-86730996D01*
X175825271Y-86724549D01*
X175821108Y-86717537D01*
X175820025Y-86715687D01*
X175817813Y-86710180D01*
X175815786Y-86701868D01*
X175813938Y-86689809D01*
X175812261Y-86673063D01*
X175810745Y-86650687D01*
X175809383Y-86621740D01*
X175808167Y-86585280D01*
X175807089Y-86540367D01*
X175806140Y-86486057D01*
X175805312Y-86421410D01*
X175804597Y-86345484D01*
X175803987Y-86257338D01*
X175803942Y-86248493D01*
X176095378Y-86248493D01*
X176099260Y-86249765D01*
X176122520Y-86251791D01*
X176164874Y-86253626D01*
X176224132Y-86255227D01*
X176298107Y-86256549D01*
X176384610Y-86257548D01*
X176481452Y-86258180D01*
X176586445Y-86258400D01*
X177284651Y-86258400D01*
X178439090Y-86258400D01*
X178438456Y-86182200D01*
X178439574Y-86140160D01*
X178445304Y-86104334D01*
X178457890Y-86066772D01*
X178479568Y-86018577D01*
X178482789Y-86011897D01*
X178508188Y-85962359D01*
X178534996Y-85914369D01*
X178557917Y-85877466D01*
X178562485Y-85870834D01*
X178584516Y-85839593D01*
X178616693Y-85794654D01*
X178657457Y-85738147D01*
X178705245Y-85672204D01*
X178758498Y-85598957D01*
X178815655Y-85520536D01*
X178875155Y-85439072D01*
X178935437Y-85356698D01*
X178994940Y-85275544D01*
X179052105Y-85197742D01*
X179105370Y-85125423D01*
X179153174Y-85060718D01*
X179193957Y-85005759D01*
X179226158Y-84962676D01*
X179248216Y-84933602D01*
X179258571Y-84920667D01*
X179263044Y-84916351D01*
X179267236Y-84914312D01*
X179270643Y-84916926D01*
X179273325Y-84925986D01*
X179275341Y-84943285D01*
X179276748Y-84970614D01*
X179277605Y-85009765D01*
X179277970Y-85062533D01*
X179277903Y-85130707D01*
X179277460Y-85216082D01*
X179276702Y-85320449D01*
X179275685Y-85445600D01*
X179275308Y-85490300D01*
X179274169Y-85611395D01*
X179272972Y-85712688D01*
X179271636Y-85796262D01*
X179270077Y-85864204D01*
X179268215Y-85918599D01*
X179265966Y-85961532D01*
X179263248Y-85995089D01*
X179259979Y-86021355D01*
X179256078Y-86042416D01*
X179251461Y-86060357D01*
X179243192Y-86086770D01*
X179219583Y-86148772D01*
X179193685Y-86201573D01*
X179168535Y-86238645D01*
X179167339Y-86240075D01*
X179165168Y-86244424D01*
X179167328Y-86248026D01*
X179175644Y-86250951D01*
X179191940Y-86253269D01*
X179218041Y-86255051D01*
X179255771Y-86256367D01*
X179306956Y-86257286D01*
X179373420Y-86257878D01*
X179456987Y-86258215D01*
X179559483Y-86258365D01*
X179682732Y-86258400D01*
X180214296Y-86258400D01*
X180175523Y-86200783D01*
X180169432Y-86191893D01*
X180158976Y-86177069D01*
X180149579Y-86163422D01*
X180141183Y-86149765D01*
X180133733Y-86134911D01*
X180127173Y-86117670D01*
X180121446Y-86096855D01*
X180116495Y-86071280D01*
X180112266Y-86039755D01*
X180108701Y-86001093D01*
X180105744Y-85954107D01*
X180103340Y-85897608D01*
X180101431Y-85830409D01*
X180099962Y-85751322D01*
X180098876Y-85659160D01*
X180098118Y-85552734D01*
X180097630Y-85430857D01*
X180097358Y-85292341D01*
X180097243Y-85135999D01*
X180097231Y-84960642D01*
X180097265Y-84765082D01*
X180097289Y-84548133D01*
X180097280Y-84425513D01*
X180097243Y-84220447D01*
X180097227Y-84036116D01*
X180097288Y-83871334D01*
X180097484Y-83724916D01*
X180097870Y-83595674D01*
X180098505Y-83482422D01*
X180099444Y-83383975D01*
X180100745Y-83299144D01*
X180102464Y-83226744D01*
X180104659Y-83165589D01*
X180107385Y-83114492D01*
X180110701Y-83072267D01*
X180114662Y-83037727D01*
X180119325Y-83009686D01*
X180124747Y-82986958D01*
X180130986Y-82968356D01*
X180138097Y-82952693D01*
X180146138Y-82938784D01*
X180155166Y-82925441D01*
X180165236Y-82911479D01*
X180176407Y-82895711D01*
X180216197Y-82837867D01*
X179156314Y-82837867D01*
X179194311Y-82900966D01*
X179208993Y-82926005D01*
X179223531Y-82953586D01*
X179235627Y-82981700D01*
X179245532Y-83012551D01*
X179253494Y-83048344D01*
X179259761Y-83091283D01*
X179264582Y-83143574D01*
X179268206Y-83207419D01*
X179270881Y-83285025D01*
X179272857Y-83378594D01*
X179274382Y-83490333D01*
X179275704Y-83622445D01*
X179276613Y-83742434D01*
X179277020Y-83859063D01*
X179276767Y-83954531D01*
X179275857Y-84028556D01*
X179274293Y-84080855D01*
X179272079Y-84111149D01*
X179269220Y-84119156D01*
X179266161Y-84115858D01*
X179248006Y-84094408D01*
X179218275Y-84057889D01*
X179178639Y-84008442D01*
X179130771Y-83948207D01*
X179076343Y-83879327D01*
X179017027Y-83803943D01*
X178954495Y-83724196D01*
X178890421Y-83642228D01*
X178826475Y-83560180D01*
X178764331Y-83480194D01*
X178705661Y-83404411D01*
X178652137Y-83334973D01*
X178605430Y-83274021D01*
X178567214Y-83223696D01*
X178539161Y-83186140D01*
X178522943Y-83163495D01*
X178477635Y-83091212D01*
X178437661Y-83011463D01*
X178416130Y-82943188D01*
X178412827Y-82885844D01*
X178418116Y-82837867D01*
X177286356Y-82838117D01*
X177325867Y-82868722D01*
X177335248Y-82876089D01*
X177398183Y-82930438D01*
X177466997Y-82998259D01*
X177543596Y-83081516D01*
X177629888Y-83182178D01*
X177647052Y-83202847D01*
X177687833Y-83252409D01*
X177737588Y-83313326D01*
X177794955Y-83383898D01*
X177858569Y-83462424D01*
X177927069Y-83547204D01*
X177999090Y-83636537D01*
X178073270Y-83728722D01*
X178088517Y-83747702D01*
X178148246Y-83822060D01*
X178222653Y-83914848D01*
X178295131Y-84005388D01*
X178364314Y-84091978D01*
X178428841Y-84172918D01*
X178487347Y-84246506D01*
X178538470Y-84311044D01*
X178580847Y-84364829D01*
X178613115Y-84406162D01*
X178633910Y-84433342D01*
X178641869Y-84444668D01*
X178640111Y-84448771D01*
X178627230Y-84469334D01*
X178602885Y-84505561D01*
X178568247Y-84555824D01*
X178524486Y-84618492D01*
X178472775Y-84691936D01*
X178414284Y-84774527D01*
X178350184Y-84864636D01*
X178281646Y-84960631D01*
X178209843Y-85060885D01*
X178135944Y-85163768D01*
X178061121Y-85267650D01*
X177986545Y-85370901D01*
X177913387Y-85471892D01*
X177842819Y-85568994D01*
X177776011Y-85660577D01*
X177714135Y-85745011D01*
X177658361Y-85820667D01*
X177609862Y-85885916D01*
X177569807Y-85939128D01*
X177539369Y-85978673D01*
X177518944Y-86004026D01*
X177472899Y-86058295D01*
X177422612Y-86114775D01*
X177375815Y-86164669D01*
X177284651Y-86258400D01*
X176586445Y-86258400D01*
X176655356Y-86258349D01*
X176753607Y-86258091D01*
X176843030Y-86257637D01*
X176921333Y-86257010D01*
X176986223Y-86256235D01*
X177035411Y-86255335D01*
X177066604Y-86254334D01*
X177077511Y-86253257D01*
X177076322Y-86250037D01*
X177066176Y-86232452D01*
X177049040Y-86206158D01*
X177040540Y-86193691D01*
X177031329Y-86179622D01*
X177023233Y-86165351D01*
X177016185Y-86149479D01*
X177010117Y-86130609D01*
X177004961Y-86107341D01*
X177000651Y-86078278D01*
X176997119Y-86042021D01*
X176994297Y-85997170D01*
X176992118Y-85942328D01*
X176990514Y-85876097D01*
X176989419Y-85797077D01*
X176988765Y-85703871D01*
X176988484Y-85595079D01*
X176988509Y-85469303D01*
X176988772Y-85325145D01*
X176989206Y-85161207D01*
X176989745Y-84976089D01*
X176990279Y-84797232D01*
X176990805Y-84638374D01*
X176991350Y-84499316D01*
X176991945Y-84378665D01*
X176992619Y-84275028D01*
X176993403Y-84187011D01*
X176994326Y-84113223D01*
X176995419Y-84052269D01*
X176996712Y-84002757D01*
X176998235Y-83963293D01*
X177000019Y-83932484D01*
X177002092Y-83908938D01*
X177004486Y-83891260D01*
X177007230Y-83878059D01*
X177010356Y-83867940D01*
X177013892Y-83859511D01*
X177017791Y-83851375D01*
X177037438Y-83814544D01*
X177056225Y-83784391D01*
X177057272Y-83782908D01*
X177071602Y-83760659D01*
X177077511Y-83747702D01*
X177076504Y-83747249D01*
X177059305Y-83745803D01*
X177022656Y-83744480D01*
X176968962Y-83743316D01*
X176900630Y-83742347D01*
X176820064Y-83741611D01*
X176729670Y-83741142D01*
X176631853Y-83740978D01*
X176186195Y-83740978D01*
X176183120Y-84917845D01*
X176180045Y-86094711D01*
X176153407Y-86153622D01*
X176141485Y-86178183D01*
X176124246Y-86208434D01*
X176111074Y-86225560D01*
X176103076Y-86233591D01*
X176095378Y-86248493D01*
X175803942Y-86248493D01*
X175803474Y-86156029D01*
X175803050Y-86040617D01*
X175802706Y-85910160D01*
X175802434Y-85763716D01*
X175802227Y-85600344D01*
X175802076Y-85419101D01*
X175801972Y-85219048D01*
X175801908Y-84999241D01*
X175801876Y-84758739D01*
X175801867Y-84496602D01*
X175801867Y-82305031D01*
X175840249Y-82266649D01*
X175867355Y-82242911D01*
X175894253Y-82231111D01*
X175930560Y-82228267D01*
X175982489Y-82228267D01*
X175982489Y-82316206D01*
X175984427Y-82366102D01*
X176003199Y-82476523D01*
X176040217Y-82577987D01*
X176093369Y-82669152D01*
X176160546Y-82748673D01*
X176239638Y-82815205D01*
X176328534Y-82867406D01*
X176425125Y-82903930D01*
X176527300Y-82923434D01*
X176632950Y-82924573D01*
X176739964Y-82906005D01*
X176846232Y-82866384D01*
X176943219Y-82808516D01*
X177028293Y-82733684D01*
X177097015Y-82645615D01*
X177147918Y-82546616D01*
X177179535Y-82438993D01*
X177190400Y-82325054D01*
X177190400Y-82228267D01*
X178810753Y-82228267D01*
X179021897Y-82228280D01*
X179226020Y-82228330D01*
X179409686Y-82228430D01*
X179573991Y-82228592D01*
X179720029Y-82228829D01*
X179848894Y-82229153D01*
X179961683Y-82229575D01*
X180059488Y-82230109D01*
X180143404Y-82230767D01*
X180214527Y-82231561D01*
X180273950Y-82232504D01*
X180322768Y-82233608D01*
X180362077Y-82234884D01*
X180392969Y-82236347D01*
X180416541Y-82238007D01*
X180433886Y-82239878D01*
X180446099Y-82241972D01*
X180454275Y-82244300D01*
X180459508Y-82246876D01*
X180465504Y-82250445D01*
X180472279Y-82253978D01*
X180478478Y-82257488D01*
X180484126Y-82261918D01*
X180489247Y-82268208D01*
X180493869Y-82277301D01*
X180498015Y-82290139D01*
X180501713Y-82307662D01*
X180504987Y-82330813D01*
X180507863Y-82360534D01*
X180510367Y-82397765D01*
X180512524Y-82443449D01*
X180514360Y-82498527D01*
X180515900Y-82563941D01*
X180517170Y-82640633D01*
X180518195Y-82729544D01*
X180519001Y-82831617D01*
X180519034Y-82837867D01*
X180519614Y-82947792D01*
G36*
X180519614Y-82947792D02*
G01*
X180520059Y-83079011D01*
X180520362Y-83226216D01*
X180520548Y-83390349D01*
X180520642Y-83572352D01*
X180520671Y-83773165D01*
X180520661Y-83993732D01*
X180520636Y-84234992D01*
X180520622Y-84497889D01*
X180520622Y-84540040D01*
X180520646Y-84800668D01*
X180520685Y-85039796D01*
X180520708Y-85258360D01*
X180520687Y-85457295D01*
X180520593Y-85637535D01*
X180520395Y-85800015D01*
X180520063Y-85945670D01*
X180519569Y-86075434D01*
X180518883Y-86190243D01*
X180517976Y-86291030D01*
X180516817Y-86378730D01*
X180515378Y-86454279D01*
X180513629Y-86518611D01*
X180511540Y-86572661D01*
X180509083Y-86617363D01*
X180506227Y-86653652D01*
X180502943Y-86682463D01*
X180499202Y-86704731D01*
X180494974Y-86721390D01*
X180490229Y-86733375D01*
X180484939Y-86741621D01*
X180479073Y-86747062D01*
X180472602Y-86750634D01*
X180465497Y-86753270D01*
X180457728Y-86755906D01*
X180449266Y-86759477D01*
X180444908Y-86761145D01*
X180436395Y-86763111D01*
X180423694Y-86764911D01*
X180405885Y-86766555D01*
X180382049Y-86768047D01*
X180351266Y-86769397D01*
X180312617Y-86770611D01*
X180265182Y-86771697D01*
X180208043Y-86772661D01*
X180140279Y-86773511D01*
X180060971Y-86774253D01*
X179969199Y-86774897D01*
X179864044Y-86775447D01*
X179744587Y-86775913D01*
X179609908Y-86776300D01*
X179459088Y-86776616D01*
X179291206Y-86776869D01*
X179105345Y-86777066D01*
X178900583Y-86777213D01*
X178676002Y-86777318D01*
X178430682Y-86777389D01*
X178163704Y-86777432D01*
X178125321Y-86777437D01*
X177859922Y-86777480D01*
X177616050Y-86777525D01*
X177392783Y-86777548D01*
X177189196Y-86777524D01*
X177004367Y-86777430D01*
X176837373Y-86777243D01*
X176687290Y-86776939D01*
X176553196Y-86776494D01*
X176434166Y-86775885D01*
X176329279Y-86775089D01*
X176237610Y-86774080D01*
X176158237Y-86772837D01*
X176090237Y-86771335D01*
X176032686Y-86769551D01*
X175984662Y-86767461D01*
X175945240Y-86765042D01*
X175913499Y-86762270D01*
X175888514Y-86759121D01*
X175869364Y-86755572D01*
X175855123Y-86751598D01*
X175844871Y-86747178D01*
X175837682Y-86742286D01*
X175832635Y-86736900D01*
X175828805Y-86730996D01*
X175825271Y-86724549D01*
X175821108Y-86717537D01*
X175820025Y-86715687D01*
X175817813Y-86710180D01*
X175815786Y-86701868D01*
X175813938Y-86689809D01*
X175812261Y-86673063D01*
X175810745Y-86650687D01*
X175809383Y-86621740D01*
X175808167Y-86585280D01*
X175807089Y-86540367D01*
X175806140Y-86486057D01*
X175805312Y-86421410D01*
X175804597Y-86345484D01*
X175803987Y-86257338D01*
X175803942Y-86248493D01*
X176095378Y-86248493D01*
X176099260Y-86249765D01*
X176122520Y-86251791D01*
X176164874Y-86253626D01*
X176224132Y-86255227D01*
X176298107Y-86256549D01*
X176384610Y-86257548D01*
X176481452Y-86258180D01*
X176586445Y-86258400D01*
X177284651Y-86258400D01*
X178439090Y-86258400D01*
X178438456Y-86182200D01*
X178439574Y-86140160D01*
X178445304Y-86104334D01*
X178457890Y-86066772D01*
X178479568Y-86018577D01*
X178482789Y-86011897D01*
X178508188Y-85962359D01*
X178534996Y-85914369D01*
X178557917Y-85877466D01*
X178562485Y-85870834D01*
X178584516Y-85839593D01*
X178616693Y-85794654D01*
X178657457Y-85738147D01*
X178705245Y-85672204D01*
X178758498Y-85598957D01*
X178815655Y-85520536D01*
X178875155Y-85439072D01*
X178935437Y-85356698D01*
X178994940Y-85275544D01*
X179052105Y-85197742D01*
X179105370Y-85125423D01*
X179153174Y-85060718D01*
X179193957Y-85005759D01*
X179226158Y-84962676D01*
X179248216Y-84933602D01*
X179258571Y-84920667D01*
X179263044Y-84916351D01*
X179267236Y-84914312D01*
X179270643Y-84916926D01*
X179273325Y-84925986D01*
X179275341Y-84943285D01*
X179276748Y-84970614D01*
X179277605Y-85009765D01*
X179277970Y-85062533D01*
X179277903Y-85130707D01*
X179277460Y-85216082D01*
X179276702Y-85320449D01*
X179275685Y-85445600D01*
X179275308Y-85490300D01*
X179274169Y-85611395D01*
X179272972Y-85712688D01*
X179271636Y-85796262D01*
X179270077Y-85864204D01*
X179268215Y-85918599D01*
X179265966Y-85961532D01*
X179263248Y-85995089D01*
X179259979Y-86021355D01*
X179256078Y-86042416D01*
X179251461Y-86060357D01*
X179243192Y-86086770D01*
X179219583Y-86148772D01*
X179193685Y-86201573D01*
X179168535Y-86238645D01*
X179167339Y-86240075D01*
X179165168Y-86244424D01*
X179167328Y-86248026D01*
X179175644Y-86250951D01*
X179191940Y-86253269D01*
X179218041Y-86255051D01*
X179255771Y-86256367D01*
X179306956Y-86257286D01*
X179373420Y-86257878D01*
X179456987Y-86258215D01*
X179559483Y-86258365D01*
X179682732Y-86258400D01*
X180214296Y-86258400D01*
X180175523Y-86200783D01*
X180169432Y-86191893D01*
X180158976Y-86177069D01*
X180149579Y-86163422D01*
X180141183Y-86149765D01*
X180133733Y-86134911D01*
X180127173Y-86117670D01*
X180121446Y-86096855D01*
X180116495Y-86071280D01*
X180112266Y-86039755D01*
X180108701Y-86001093D01*
X180105744Y-85954107D01*
X180103340Y-85897608D01*
X180101431Y-85830409D01*
X180099962Y-85751322D01*
X180098876Y-85659160D01*
X180098118Y-85552734D01*
X180097630Y-85430857D01*
X180097358Y-85292341D01*
X180097243Y-85135999D01*
X180097231Y-84960642D01*
X180097265Y-84765082D01*
X180097289Y-84548133D01*
X180097280Y-84425513D01*
X180097243Y-84220447D01*
X180097227Y-84036116D01*
X180097288Y-83871334D01*
X180097484Y-83724916D01*
X180097870Y-83595674D01*
X180098505Y-83482422D01*
X180099444Y-83383975D01*
X180100745Y-83299144D01*
X180102464Y-83226744D01*
X180104659Y-83165589D01*
X180107385Y-83114492D01*
X180110701Y-83072267D01*
X180114662Y-83037727D01*
X180119325Y-83009686D01*
X180124747Y-82986958D01*
X180130986Y-82968356D01*
X180138097Y-82952693D01*
X180146138Y-82938784D01*
X180155166Y-82925441D01*
X180165236Y-82911479D01*
X180176407Y-82895711D01*
X180216197Y-82837867D01*
X179156314Y-82837867D01*
X179194311Y-82900966D01*
X179208993Y-82926005D01*
X179223531Y-82953586D01*
X179235627Y-82981700D01*
X179245532Y-83012551D01*
X179253494Y-83048344D01*
X179259761Y-83091283D01*
X179264582Y-83143574D01*
X179268206Y-83207419D01*
X179270881Y-83285025D01*
X179272857Y-83378594D01*
X179274382Y-83490333D01*
X179275704Y-83622445D01*
X179276613Y-83742434D01*
X179277020Y-83859063D01*
X179276767Y-83954531D01*
X179275857Y-84028556D01*
X179274293Y-84080855D01*
X179272079Y-84111149D01*
X179269220Y-84119156D01*
X179266161Y-84115858D01*
X179248006Y-84094408D01*
X179218275Y-84057889D01*
X179178639Y-84008442D01*
X179130771Y-83948207D01*
X179076343Y-83879327D01*
X179017027Y-83803943D01*
X178954495Y-83724196D01*
X178890421Y-83642228D01*
X178826475Y-83560180D01*
X178764331Y-83480194D01*
X178705661Y-83404411D01*
X178652137Y-83334973D01*
X178605430Y-83274021D01*
X178567214Y-83223696D01*
X178539161Y-83186140D01*
X178522943Y-83163495D01*
X178477635Y-83091212D01*
X178437661Y-83011463D01*
X178416130Y-82943188D01*
X178412827Y-82885844D01*
X178418116Y-82837867D01*
X177286356Y-82838117D01*
X177325867Y-82868722D01*
X177335248Y-82876089D01*
X177398183Y-82930438D01*
X177466997Y-82998259D01*
X177543596Y-83081516D01*
X177629888Y-83182178D01*
X177647052Y-83202847D01*
X177687833Y-83252409D01*
X177737588Y-83313326D01*
X177794955Y-83383898D01*
X177858569Y-83462424D01*
X177927069Y-83547204D01*
X177999090Y-83636537D01*
X178073270Y-83728722D01*
X178088517Y-83747702D01*
X178148246Y-83822060D01*
X178222653Y-83914848D01*
X178295131Y-84005388D01*
X178364314Y-84091978D01*
X178428841Y-84172918D01*
X178487347Y-84246506D01*
X178538470Y-84311044D01*
X178580847Y-84364829D01*
X178613115Y-84406162D01*
X178633910Y-84433342D01*
X178641869Y-84444668D01*
X178640111Y-84448771D01*
X178627230Y-84469334D01*
X178602885Y-84505561D01*
X178568247Y-84555824D01*
X178524486Y-84618492D01*
X178472775Y-84691936D01*
X178414284Y-84774527D01*
X178350184Y-84864636D01*
X178281646Y-84960631D01*
X178209843Y-85060885D01*
X178135944Y-85163768D01*
X178061121Y-85267650D01*
X177986545Y-85370901D01*
X177913387Y-85471892D01*
X177842819Y-85568994D01*
X177776011Y-85660577D01*
X177714135Y-85745011D01*
X177658361Y-85820667D01*
X177609862Y-85885916D01*
X177569807Y-85939128D01*
X177539369Y-85978673D01*
X177518944Y-86004026D01*
X177472899Y-86058295D01*
X177422612Y-86114775D01*
X177375815Y-86164669D01*
X177284651Y-86258400D01*
X176586445Y-86258400D01*
X176655356Y-86258349D01*
X176753607Y-86258091D01*
X176843030Y-86257637D01*
X176921333Y-86257010D01*
X176986223Y-86256235D01*
X177035411Y-86255335D01*
X177066604Y-86254334D01*
X177077511Y-86253257D01*
X177076322Y-86250037D01*
X177066176Y-86232452D01*
X177049040Y-86206158D01*
X177040540Y-86193691D01*
X177031329Y-86179622D01*
X177023233Y-86165351D01*
X177016185Y-86149479D01*
X177010117Y-86130609D01*
X177004961Y-86107341D01*
X177000651Y-86078278D01*
X176997119Y-86042021D01*
X176994297Y-85997170D01*
X176992118Y-85942328D01*
X176990514Y-85876097D01*
X176989419Y-85797077D01*
X176988765Y-85703871D01*
X176988484Y-85595079D01*
X176988509Y-85469303D01*
X176988772Y-85325145D01*
X176989206Y-85161207D01*
X176989745Y-84976089D01*
X176990279Y-84797232D01*
X176990805Y-84638374D01*
X176991350Y-84499316D01*
X176991945Y-84378665D01*
X176992619Y-84275028D01*
X176993403Y-84187011D01*
X176994326Y-84113223D01*
X176995419Y-84052269D01*
X176996712Y-84002757D01*
X176998235Y-83963293D01*
X177000019Y-83932484D01*
X177002092Y-83908938D01*
X177004486Y-83891260D01*
X177007230Y-83878059D01*
X177010356Y-83867940D01*
X177013892Y-83859511D01*
X177017791Y-83851375D01*
X177037438Y-83814544D01*
X177056225Y-83784391D01*
X177057272Y-83782908D01*
X177071602Y-83760659D01*
X177077511Y-83747702D01*
X177076504Y-83747249D01*
X177059305Y-83745803D01*
X177022656Y-83744480D01*
X176968962Y-83743316D01*
X176900630Y-83742347D01*
X176820064Y-83741611D01*
X176729670Y-83741142D01*
X176631853Y-83740978D01*
X176186195Y-83740978D01*
X176183120Y-84917845D01*
X176180045Y-86094711D01*
X176153407Y-86153622D01*
X176141485Y-86178183D01*
X176124246Y-86208434D01*
X176111074Y-86225560D01*
X176103076Y-86233591D01*
X176095378Y-86248493D01*
X175803942Y-86248493D01*
X175803474Y-86156029D01*
X175803050Y-86040617D01*
X175802706Y-85910160D01*
X175802434Y-85763716D01*
X175802227Y-85600344D01*
X175802076Y-85419101D01*
X175801972Y-85219048D01*
X175801908Y-84999241D01*
X175801876Y-84758739D01*
X175801867Y-84496602D01*
X175801867Y-82305031D01*
X175840249Y-82266649D01*
X175867355Y-82242911D01*
X175894253Y-82231111D01*
X175930560Y-82228267D01*
X175982489Y-82228267D01*
X175982489Y-82316206D01*
X175984427Y-82366102D01*
X176003199Y-82476523D01*
X176040217Y-82577987D01*
X176093369Y-82669152D01*
X176160546Y-82748673D01*
X176239638Y-82815205D01*
X176328534Y-82867406D01*
X176425125Y-82903930D01*
X176527300Y-82923434D01*
X176632950Y-82924573D01*
X176739964Y-82906005D01*
X176846232Y-82866384D01*
X176943219Y-82808516D01*
X177028293Y-82733684D01*
X177097015Y-82645615D01*
X177147918Y-82546616D01*
X177179535Y-82438993D01*
X177190400Y-82325054D01*
X177190400Y-82228267D01*
X178810753Y-82228267D01*
X179021897Y-82228280D01*
X179226020Y-82228330D01*
X179409686Y-82228430D01*
X179573991Y-82228592D01*
X179720029Y-82228829D01*
X179848894Y-82229153D01*
X179961683Y-82229575D01*
X180059488Y-82230109D01*
X180143404Y-82230767D01*
X180214527Y-82231561D01*
X180273950Y-82232504D01*
X180322768Y-82233608D01*
X180362077Y-82234884D01*
X180392969Y-82236347D01*
X180416541Y-82238007D01*
X180433886Y-82239878D01*
X180446099Y-82241972D01*
X180454275Y-82244300D01*
X180459508Y-82246876D01*
X180465504Y-82250445D01*
X180472279Y-82253978D01*
X180478478Y-82257488D01*
X180484126Y-82261918D01*
X180489247Y-82268208D01*
X180493869Y-82277301D01*
X180498015Y-82290139D01*
X180501713Y-82307662D01*
X180504987Y-82330813D01*
X180507863Y-82360534D01*
X180510367Y-82397765D01*
X180512524Y-82443449D01*
X180514360Y-82498527D01*
X180515900Y-82563941D01*
X180517170Y-82640633D01*
X180518195Y-82729544D01*
X180519001Y-82831617D01*
X180519034Y-82837867D01*
X180519614Y-82947792D01*
G37*
%TD*%
M02*
