%TF.GenerationSoftware,KiCad,Pcbnew,9.99.0-3247-gbad00cdceb*%
%TF.CreationDate,2025-09-27T20:08:06+05:30*%
%TF.ProjectId,led 2,6c656420-322e-46b6-9963-61645f706362,rev?*%
%TF.SameCoordinates,Original*%
%TF.FileFunction,Copper,L1,Top*%
%TF.FilePolarity,Positive*%
%FSLAX46Y46*%
G04 Gerber Fmt 4.6, Leading zero omitted, Abs format (unit mm)*
G04 Created by KiCad (PCBNEW 9.99.0-3247-gbad00cdceb) date 2025-09-27 20:08:06*
%MOMM*%
%LPD*%
G01*
G04 APERTURE LIST*
%TA.AperFunction,Conductor*%
%ADD10C,0.200000*%
%TD*%
%TA.AperFunction,SMDPad,CuDef*%
%ADD11R,2.540000X3.510000*%
%TD*%
%TA.AperFunction,ComponentPad*%
%ADD12C,1.700000*%
%TD*%
%TA.AperFunction,ComponentPad*%
%ADD13C,1.800000*%
%TD*%
%TA.AperFunction,ComponentPad*%
%ADD14R,1.800000X1.800000*%
%TD*%
%TA.AperFunction,ComponentPad*%
%ADD15C,1.400000*%
%TD*%
G04 APERTURE END LIST*
%TO.N,Net-(BT1-+)*%
D10*
X184404000Y-88138000D02*
X188416000Y-85090000D01*
X157988000Y-88138000D02*
X184404000Y-88138000D01*
X155194000Y-87122000D02*
X157988000Y-88138000D01*
%TO.N,Net-(BT1--)*%
X156210000Y-84328000D02*
X159056000Y-85090000D01*
%TD*%
D11*
%TO.P,BT1,1,+_1*%
%TO.N,Net-(BT1-+)*%
X188416000Y-85090000D03*
%TO.P,BT1,2,-_2*%
%TO.N,Net-(BT1--)*%
X159056000Y-85090000D03*
%TD*%
D12*
%TO.P,SW1,1,A_1*%
%TO.N,Net-(SW1A-A)*%
X148590000Y-82804000D03*
X155090000Y-82804000D03*
%TO.P,SW1,2,B_2*%
%TO.N,Net-(BT1-+)*%
X148590000Y-87304000D03*
X155090000Y-87304000D03*
%TD*%
D13*
%TO.P,D1,2,A_2*%
%TO.N,Net-(D1-A)*%
X122941000Y-84836000D03*
D14*
%TO.P,D1,1,K_1*%
%TO.N,Net-(BT1--)*%
X125481000Y-84836000D03*
%TD*%
D15*
%TO.P,R1,2*%
%TO.N,Net-(SW1A-A)*%
X140716000Y-81280000D03*
%TO.P,R1,1*%
%TO.N,Net-(D1-A)*%
X140716000Y-88900000D03*
%TD*%
%TO.N,Net-(BT1-+)*%
D10*
X148590000Y-87304000D02*
X155090000Y-87304000D01*
%TO.N,Net-(BT1--)*%
X144272000Y-84328000D02*
X156191000Y-84328000D01*
X142996160Y-83052160D02*
X144272000Y-84328000D01*
X130815840Y-83052160D02*
X142996160Y-83052160D01*
X125481000Y-84836000D02*
X129032000Y-84836000D01*
X129032000Y-84836000D02*
X130815840Y-83052160D01*
%TO.N,Net-(D1-A)*%
X126746000Y-87376000D02*
X128270000Y-88900000D01*
X123698000Y-87376000D02*
X126746000Y-87376000D01*
X122941000Y-86619000D02*
X123698000Y-87376000D01*
X122941000Y-84836000D02*
X122941000Y-86619000D01*
X128270000Y-88900000D02*
X140716000Y-88900000D01*
%TO.N,Net-(SW1A-A)*%
X148590000Y-82804000D02*
X155090000Y-82804000D01*
X144526000Y-82804000D02*
X148590000Y-82804000D01*
X143002000Y-81280000D02*
X144526000Y-82804000D01*
X140716000Y-81280000D02*
X143002000Y-81280000D01*
%TD*%
M02*
